<?xml version="1.0" ?>
<!-- Uploaded to: SVG Repo, www.svgrepo.com, Generator: SVG Repo Mixer Tools -->
<svg width="800px" height="800px" viewBox="0 0 64 64" xmlns="http://www.w3.org/2000/svg" xmlns:xlink="http://www.w3.org/1999/xlink">
<defs>
<style>.cls-1{fill:url(#linear-gradient);}</style>
<linearGradient gradientUnits="userSpaceOnUse" id="linear-gradient" x1="6.7461" x2="52.0744" y1="61.1604" y2="15.8322">
<stop offset="0" stop-color="#107eff"/>
<stop offset="1" stop-color="#8f16ff"/>
</linearGradient>
</defs>
<g id="man-mask10">
<path class="cls-1" d="M46.2373,44.259c-.9849-2.81-4.7288-5.4608-6.6173-6.6515A4.4116,4.4116,0,0,0,41,34.4224V29.7393a3.6987,3.6987,0,0,0,2.3213-2.9131l.23-1.6074A3.6611,3.6611,0,0,0,41.9346,21.63C43.9707,18.074,44,13.2209,44,13a1,1,0,0,0-.5527-.8945l-.9873-.4932,1.372-2.0576A1,1,0,0,0,43.6,8.2C40.4629,5.8467,34.7959,6.2461,31.78,6.6748l.1142-.2275A1,1,0,0,0,31,5c-3.66,0-7.1465,3.52-8.3467,4.8667a5.9939,5.9939,0,0,0-5.36,1.4263.99.99,0,0,0-.1875.26c-1.3482,2.6975-.0943,6.6891,1.3784,9.842a3.6567,3.6567,0,0,0-2.0347,3.8241l.2295,1.6079A3.6988,3.6988,0,0,0,19,29.7393v4.6831a4.4233,4.4233,0,0,0,1.5469,3.3632l.1106.0948c-1.982,1.3074-4.85,3.4951-5.979,5.8272A11.2233,11.2233,0,0,0,8.5664,51.86L7.0146,60.83a1,1,0,0,0,.8145,1.1558A1.0455,1.0455,0,0,0,8.001,62a1,1,0,0,0,.9844-.83l1.5517-8.97a9.2247,9.2247,0,0,1,3.7439-5.9313c.015.0717.0161.1441.0364.2155.7331,2.5868,4.4873,4.0086,11.6826,4.3994V58a1,1,0,0,0,2,0V50.9643c.7.0186,1.423.0306,2.1794.0329L30.1943,51c.05,0,.096-.0013.146-.0013s.0965.0013.147.0013l.0149-.0028c.8723-.0026,1.7-.018,2.4978-.0424V55a1,1,0,0,0,2,0V50.8673c6.7515-.4011,10.3792-1.7435,11.2676-4.1312a9.1971,9.1971,0,0,1,3.1894,5.4988l1.5576,8.937A1,1,0,0,0,51.999,62a1.0574,1.0574,0,0,0,.1729-.0146,1.0007,1.0007,0,0,0,.8135-1.1573l-1.5577-8.9365A11.1981,11.1981,0,0,0,46.2373,44.259ZM30.3406,48.948a24.3072,24.3072,0,0,1-2.9013-.8358.9686.9686,0,0,0-.1512-.054,13.7151,13.7151,0,0,1-4.9208-2.8067C24.7365,44.0364,25,43.6153,25,43V41.6024l.5762.4938A3.7555,3.7555,0,0,0,28.02,43h3.961a3.7555,3.7555,0,0,0,2.4433-.9038L35,41.6023V43c0,.674.2769,1.0573,3.1946,2.3631C36.15,47.3282,32.2808,48.5286,30.3406,48.948ZM21,31.0543l9-3,9,3v3.3681a2.4287,2.4287,0,0,1-.8486,1.8452l-5.0284,4.31A1.7571,1.7571,0,0,1,31.9805,41H28.02a1.7571,1.7571,0,0,1-1.1425-.4224l-5.0293-4.31A2.429,2.429,0,0,1,21,34.4224ZM18.82,12.6089a4.0356,4.0356,0,0,1,3.8633-.66,1.0029,1.0029,0,0,0,1.0967-.3232c.0312-.0386,2.5781-3.1782,5.42-4.2622l-.0947.1894a1,1,0,0,0,1.1113,1.4234c2.1836-.4844,8.1143-1.2637,11.375.334L40.168,11.4453a.9995.9995,0,0,0,.3847,1.4492l1.4258.7129a18.6985,18.6985,0,0,1-1.3414,6.14l-.6508-3.911a1,1,0,0,0-1.249-.8007L33.9531,16.34a17.5323,17.5323,0,0,1-11.4814-.7968l-1.0781-.4624a1,1,0,0,0-1.38.7553L19.53,18.7415C18.5242,16.0908,18.2615,13.9325,18.82,12.6089Zm-.1611,13.935L18.43,24.9365a1.66,1.66,0,0,1,.3721-1.3144,1.7026,1.7026,0,0,1,1.2382-.6109.9991.9991,0,0,0,.9463-.8349l.791-4.7554a19.562,19.562,0,0,0,12.7012.8486l3.7168-1.0136.8184,4.92a.9991.9991,0,0,0,.9463.8349,1.7026,1.7026,0,0,1,1.2382.6109,1.66,1.66,0,0,1,.3721,1.3144l-.23,1.607a1.695,1.695,0,0,1-1.4668,1.4336.9982.9982,0,0,0-.87.97l-8.6878-2.896a1.0014,1.0014,0,0,0-.6328,0l-8.6878,2.896a.9982.9982,0,0,0-.87-.97A1.695,1.695,0,0,1,18.6592,26.5439ZM16.2412,45.94c-.331-1.168,1.0772-2.9117,3.0586-4.5679a5.1743,5.1743,0,0,0,.1338,2.9526c.67,1.9248,2.46,3.3594,4.3984,4.3941C17.6436,48.1064,16.4443,46.6548,16.2412,45.94Zm28.2031-.0152c-.1943.7193-1.3779,2.18-7.5957,2.794,1.9571-1.0435,3.7618-2.4947,4.418-4.4473a5.1828,5.1828,0,0,0,.11-2.9175C43.2861,42.9512,44.7676,44.7236,44.4443,45.9243ZM43,54v7a1,1,0,0,1-2,0V54a1,1,0,0,1,2,0ZM19,54v7a1,1,0,0,1-2,0V54a1,1,0,0,1,2,0ZM8.3677,13.5A1.1323,1.1323,0,1,1,9.5,14.6323,1.1323,1.1323,0,0,1,8.3677,13.5Zm47.7534,9.207a1,1,0,1,1-1.4141,1.4141L54,23.4141l-.707.707a1,1,0,1,1-1.4141-1.4141l.707-.707-.707-.707a1,1,0,1,1,1.4141-1.4141l.707.707.707-.707a1,1,0,1,1,1.4141,1.4141l-.707.707ZM12,26.5A3.5,3.5,0,1,0,8.5,30,3.5042,3.5042,0,0,0,12,26.5Zm-5,0A1.5,1.5,0,1,1,8.5,28,1.5017,1.5017,0,0,1,7,26.5ZM33,25a1,1,0,1,1,1,1A1,1,0,0,1,33,25Zm-8,0a1,1,0,1,1,1,1A1,1,0,0,1,25,25Zm.0176,7.0332a.999.999,0,0,1,1.1679-.7969A34.5062,34.5062,0,0,0,30,31.7812a34.5062,34.5062,0,0,0,3.8145-.5449,1,1,0,0,1,.371,1.9649,35.61,35.61,0,0,1-4.1855.58,35.61,35.61,0,0,1-4.1855-.58A.999.999,0,0,1,25.0176,32.0332Zm-.9834,2.7075a1.0042,1.0042,0,0,1,1.2246-.7065A30.4727,30.4727,0,0,0,30,35a30.4727,30.4727,0,0,0,4.7412-.9658,1,1,0,1,1,.5176,1.9316A32.3,32.3,0,0,1,30,37a32.3,32.3,0,0,1-5.2588-1.0342A.9991.9991,0,0,1,24.0342,34.7407Z"/>
</g>
</svg>