<?xml version="1.0" ?><!-- Uploaded to: SVG Repo, www.svgrepo.com, Generator: SVG Repo Mixer Tools -->
<svg width="800px" height="800px" viewBox="0 0 64 64" id="man-mask1" xmlns="http://www.w3.org/2000/svg" xmlns:xlink="http://www.w3.org/1999/xlink"><defs><style>.cls-1{fill:url(#linear-gradient);}</style><linearGradient gradientUnits="userSpaceOnUse" id="linear-gradient" x1="7.7461" x2="60.4269" y1="62.1604" y2="9.4796"><stop offset="0" stop-color="#107eff"/><stop offset="1" stop-color="#8f16ff"/></linearGradient></defs><path class="cls-1" d="M8.3677,17.5A1.1324,1.1324,0,1,1,9.5,18.6323,1.1323,1.1323,0,0,1,8.3677,17.5Zm47.7534,3.3789a1,1,0,0,0-1.4141,0l-.707.707-.707-.707a1,1,0,1,0-1.4141,1.4141l.707.707-.707.707a1,1,0,1,0,1.4141,1.4141l.707-.707.707.707a1,1,0,1,0,1.4141-1.4141L55.4141,23l.707-.707A1,1,0,0,0,56.1211,20.8789ZM50.3389,45.6455l2.6465,15.1826a1.0007,1.0007,0,0,1-.8135,1.1573A1.0528,1.0528,0,0,1,51.999,62a1.0008,1.0008,0,0,1-.9844-.8281l-2.54-14.5728L39.4423,43.907,32.895,48.272a5.2063,5.2063,0,0,1-1.895.77V61a1,1,0,0,1-2,0V49.0417a5.2063,5.2063,0,0,1-1.895-.77l-6.61-4.4068L11.51,46.5786,8.9854,61.17A1,1,0,0,1,8.001,62a1.03,1.03,0,0,1-.1714-.0146,1,1,0,0,1-.815-1.1558l2.63-15.2a1.0006,1.0006,0,0,1,.6963-.7871L22,41.3211v-4.29l-1.4531-1.2458A4.4242,4.4242,0,0,1,19,32.4224V27.7393a3.6965,3.6965,0,0,1-2.32-2.9126l-.23-1.6075A3.6858,3.6858,0,0,1,19,19.18V15.2578A8.2674,8.2674,0,0,1,27.2578,7h5.4844A8.2674,8.2674,0,0,1,41,15.2578V19.18a3.6857,3.6857,0,0,1,2.55,4.0386l-.23,1.6079A3.6965,3.6965,0,0,1,41,27.7393v4.6831a4.426,4.426,0,0,1-1.5469,3.3637L38,37.0317V41.39l11.6392,3.469A1.0015,1.0015,0,0,1,50.3389,45.6455ZM20.126,25.9771a.9979.9979,0,0,1,.87.97l8.6877-2.896a1.0014,1.0014,0,0,1,.6328,0l8.6877,2.896a.9979.9979,0,0,1,.87-.97,1.6956,1.6956,0,0,0,1.4668-1.4336l.23-1.6075A1.61,1.61,0,0,0,41,21.4291V22a1,1,0,0,1-2,0V15.2578A6.2647,6.2647,0,0,0,32.7422,9H27.2578A6.2647,6.2647,0,0,0,21,15.2578V22a1,1,0,0,1-2,0v-.5709a1.6105,1.6105,0,0,0-.5708,1.5074l.23,1.607A1.6956,1.6956,0,0,0,20.126,25.9771Zm1.7221,8.29,5.0289,4.31A1.7558,1.7558,0,0,0,28.019,39h3.962a1.7559,1.7559,0,0,0,1.1425-.4229l5.0279-4.3095A2.4287,2.4287,0,0,0,39,32.4224V29.0543l-9-3-9,3v3.3681A2.4264,2.4264,0,0,0,21.8481,34.2671ZM29,46.9852V45.68l-5.9733-2.58-.05.0151,5.2379,3.4921A3.2244,3.2244,0,0,0,29,46.9852Zm7.9507-3.8208-.078-.0233L31,45.639v1.3462a3.2244,3.2244,0,0,0,.7856-.3773ZM50,7.5A3.5,3.5,0,1,1,53.5,11,3.5042,3.5042,0,0,1,50,7.5Zm2,0A1.5,1.5,0,1,0,53.5,6,1.5017,1.5017,0,0,0,52,7.5ZM35,22a1,1,0,1,0,1,1A1,1,0,0,0,35,22ZM25,24a1,1,0,1,0-1-1A1,1,0,0,0,25,24Zm0-3h3a1,1,0,0,0,0-2H25a1,1,0,0,0,0,2Zm7,0h3a1,1,0,0,0,0-2H32a1,1,0,0,0,0,2ZM43,53a1,1,0,0,0-1,1v7a1,1,0,0,0,2,0V54A1,1,0,0,0,43,53ZM17,53a1,1,0,0,0-1,1v7a1,1,0,0,0,2,0V54A1,1,0,0,0,17,53Zm8.8145-21.7988a35.5948,35.5948,0,0,0,4.1855.58,35.5948,35.5948,0,0,0,4.1855-.58,1,1,0,0,0-.371-1.9649A34.4725,34.4725,0,0,1,30,29.7812a34.4725,34.4725,0,0,1-3.8145-.5449,1,1,0,0,0-.371,1.9649Zm9.4448,2.7646a1,1,0,1,0-.5186-1.9316A30.4474,30.4474,0,0,1,30,33a30.4474,30.4474,0,0,1-4.7407-.9658,1,1,0,0,0-.5186,1.9316A32.33,32.33,0,0,0,30,35,32.33,32.33,0,0,0,35.2593,33.9658Z"/></svg>