<?xml version="1.0" ?>
<!-- Uploaded to: SVG Repo, www.svgrepo.com, Generator: SVG Repo Mixer Tools -->
<svg width="800px" height="800px" viewBox="0 0 64 64" xmlns="http://www.w3.org/2000/svg" xmlns:xlink="http://www.w3.org/1999/xlink">
<defs>
<style>.cls-1{fill:url(#linear-gradient);}</style>
<linearGradient gradientUnits="userSpaceOnUse" id="linear-gradient" x1="7.5428" x2="50.4573" y1="63.9571" y2="21.0425">
<stop offset="0" stop-color="#107eff"/>
<stop offset="1" stop-color="#8f16ff"/>
</linearGradient>
</defs>
<g id="man-mask18">
<path class="cls-1" d="M43,55v7a1,1,0,0,1-2,0V55a1,1,0,0,1,2,0ZM16,54a1,1,0,0,0-1,1v7a1,1,0,0,0,2,0V55A1,1,0,0,0,16,54ZM9.5,31.6323A1.1324,1.1324,0,1,0,8.3676,30.5,1.1323,1.1323,0,0,0,9.5,31.6323Zm42.6211-8.7534a1,1,0,0,0-1.4141,0l-.707.707-.707-.707a1,1,0,1,0-1.4141,1.4141l.707.707-.707.707a1,1,0,1,0,1.4141,1.4141l.707-.707.707.707a1,1,0,1,0,1.4141-1.4141L51.4141,25l.707-.707A1,1,0,0,0,52.1211,22.8789ZM60,39.5A3.5,3.5,0,1,1,56.5,36,3.5042,3.5042,0,0,1,60,39.5Zm-2,0A1.5,1.5,0,1,0,56.5,41,1.5017,1.5017,0,0,0,58,39.5ZM24.8145,33.2012a35.61,35.61,0,0,0,4.1855.58,35.61,35.61,0,0,0,4.1855-.58,1,1,0,0,0-.371-1.9649A34.5062,34.5062,0,0,1,29,31.7812a34.5062,34.5062,0,0,1-3.8145-.5449,1,1,0,0,0-.371,1.9649Zm9.4443,2.7646a1,1,0,1,0-.5176-1.9316A30.4727,30.4727,0,0,1,29,35a30.4727,30.4727,0,0,1-4.7412-.9658,1,1,0,1,0-.5176,1.9316A32.3,32.3,0,0,0,29,37,32.3,32.3,0,0,0,34.2588,35.9658ZM51.9854,61.8281a1.0007,1.0007,0,0,1-.8135,1.1573A1.0574,1.0574,0,0,1,50.999,63a1,1,0,0,1-.9844-.8281L47.69,48.8326A27.7115,27.7115,0,0,1,30,55.9753V62a1,1,0,0,1-2,0V55.9752a27.7077,27.7077,0,0,1-17.7048-7.1566L7.9854,62.17A1,1,0,0,1,7.001,63a1.0455,1.0455,0,0,1-.1719-.0146A1,1,0,0,1,6.0146,61.83l2.63-15.2a1,1,0,0,1,.6963-.7871L14,44.4353V42a1,1,0,0,1,1.707-.707l2,2c.0056.0056.0072.0133.0127.019l3.28-.99v-4.29l-1.4531-1.2455A4.4233,4.4233,0,0,1,18,33.4224V28.7393a3.6988,3.6988,0,0,1-2.3213-2.9126l-.2295-1.6079A3.6876,3.6876,0,0,1,18,20.18V16.2578a8.2656,8.2656,0,0,1,.1708-1.6729l-.8778-.8779a1,1,0,0,1,1.414-1.414l.2068.2067a8.2919,8.2919,0,0,1,1.6252-2.1853l-.4335-.8671a1,1,0,1,1,1.789-.8946l.2711.5422a8.1979,8.1979,0,0,1,2.1163-.8459L24.03,7.2427A1,1,0,1,1,25.97,6.7573L26.28,8H28V6a1,1,0,0,1,2,0V8h1.72L32.03,6.7573a1,1,0,1,1,1.9394.4854L33.7181,8.249a8.1979,8.1979,0,0,1,2.1163.8459l.2711-.5422a1,1,0,1,1,1.789.8946l-.4335.8671A8.2919,8.2919,0,0,1,39.0862,12.5l.2068-.2067a1,1,0,0,1,1.414,1.414l-.8778.8779A8.2656,8.2656,0,0,1,40,16.2578V20.18a3.6876,3.6876,0,0,1,2.5508,4.0386l-.23,1.6074A3.6987,3.6987,0,0,1,40,28.7393v4.6831a4.4252,4.4252,0,0,1-1.5479,3.3637L37,38.0308V42.39l3.2494.9684c.0174-.02.0242-.0462.0436-.0655l2-2A1,1,0,0,1,44,42v2.4764l4.6387,1.3825a1.0005,1.0005,0,0,1,.7.7866Zm-12.1387-35.32a1.6724,1.6724,0,0,0,.4941-.9646l.23-1.607A1.6122,1.6122,0,0,0,40,22.4293V26A.984.984,0,0,1,39.8467,26.5081Zm-21.6934,0A.9841.9841,0,0,1,18,26V22.4293a1.6779,1.6779,0,0,0-.1982.1928,1.66,1.66,0,0,0-.3721,1.3144l.2295,1.6074A1.6719,1.6719,0,0,0,18.1533,26.5082Zm20.2617.6688-3.4611.8653L38,29.6668V27.9692A.9871.9871,0,0,1,38.415,27.177ZM20,19H38V16.4141l-.293.2929a1,1,0,0,1-1.414-1.414L37.5756,14.01a6.2591,6.2591,0,0,0-1.065-1.7952l-.6161,1.2322a1,1,0,0,1-1.789-.8946l.8325-1.6652a6.2138,6.2138,0,0,0-1.7044-.7L32.97,11.2427a1,1,0,1,1-1.9394-.4854L31.22,10H30v1a1,1,0,0,1-2,0V10H26.78l.1893.7573a1,1,0,1,1-1.9394.4854l-.2639-1.0556a6.2138,6.2138,0,0,0-1.7044.7l.8325,1.6652a1,1,0,0,1-1.789.8946l-.6161-1.2322a6.2591,6.2591,0,0,0-1.065,1.7952L21.707,15.293a1,1,0,1,1-1.414,1.414L20,16.4141Zm13.707,2.293a.9995.9995,0,0,0-1.414,0l-1,1a1,1,0,1,0,1.414,1.414l1-1A.9994.9994,0,0,0,33.707,21.293Zm-10,0a.9995.9995,0,0,0-1.414,0l-1,1a1,1,0,1,0,1.414,1.414l1-1A.9994.9994,0,0,0,23.707,21.293ZM20,27.9692v1.6977l3.0462-1.6246L19.585,27.177A.9871.9871,0,0,1,20,27.9692Zm5.877,11.6084A1.7571,1.7571,0,0,0,27.02,40h3.961a1.7571,1.7571,0,0,0,1.1425-.4224l5.0284-4.31A2.4287,2.4287,0,0,0,38,33.4224V31.9335l-5.94-3.1678-.8179.2045a1,1,0,0,1-1.1367-.5229L29.3818,27h-.7636l-.7237,1.4473a.9992.9992,0,0,1-1.1367.5229l-.8178-.2045L20,31.9335v1.4889a2.429,2.429,0,0,0,.8477,1.8447Zm-.0791,14.2209L21.3828,50.332A.9978.9978,0,0,1,21,49.5454V44.4111l-9.4453,2.852A25.7,25.7,0,0,0,25.7979,53.7985Zm6.5185-4.85L30,49.7209v3.201l5-3.8672V39.7452l-1.5762,1.351A3.7555,3.7555,0,0,1,30.9805,42H27.02a3.7555,3.7555,0,0,1-2.4433-.9038L23,39.7453v9.3138l5,3.9258v-3.264l-2.3164-.7722a1,1,0,0,1,.6328-1.8974L28,47.6125V46a1,1,0,0,1,2,0v1.6125l1.6836-.5612a1,1,0,0,1,.6328,1.8974Zm14.1047-1.6636L37,44.4771v5.0683a1,1,0,0,1-.3887.791l-4.4892,3.472A25.7053,25.7053,0,0,0,46.4211,47.2851Z"/>
</g>
</svg>