<?xml version="1.0" ?>
<!-- Uploaded to: SVG Repo, www.svgrepo.com, Generator: SVG Repo Mixer Tools -->
<svg width="800px" height="800px" viewBox="0 0 64 64" xmlns="http://www.w3.org/2000/svg" xmlns:xlink="http://www.w3.org/1999/xlink">
<defs>
<style>.cls-1{fill:url(#linear-gradient);}</style>
<linearGradient gradientUnits="userSpaceOnUse" id="linear-gradient" x1="8.9978" x2="54.3259" y1="61.4119" y2="16.0838">
<stop offset="0" stop-color="#107eff"/>
<stop offset="1" stop-color="#8f16ff"/>
</linearGradient>
</defs>
<g id="man-mask2">
<path class="cls-1" d="M44,54v7a1,1,0,0,1-2,0V54a1,1,0,0,1,2,0ZM17,53a1,1,0,0,0-1,1v7a1,1,0,0,0,2,0V54A1,1,0,0,0,17,53ZM9.6324,24.5A1.1324,1.1324,0,1,0,8.5,25.6323,1.1324,1.1324,0,0,0,9.6324,24.5Zm45.6606-.3789.707-.707.707.707a1,1,0,1,0,1.4141-1.4141L57.4141,22l.707-.707a1,1,0,1,0-1.4141-1.4141l-.707.707-.707-.707a1,1,0,1,0-1.4141,1.4141l.707.707-.707.707a1,1,0,1,0,1.4141,1.4141Zm-4.94,21.6538.6465,15.1826a1,1,0,0,1-.9565,1.0415L50,62a1,1,0,0,1-.9985-.9575L48.4478,48.047a27.9489,27.9489,0,0,1-36.91-.0129l-.539,13.0074A1,1,0,0,1,10.0005,62l-.042-.001a1,1,0,0,1-.9575-1.0405l.63-15.2a1.0007,1.0007,0,0,1,.5825-.8677L22,39.49V37.0314l-1.4531-1.2458A4.4242,4.4242,0,0,1,19,32.4224V27.7393a3.6965,3.6965,0,0,1-2.32-2.9126l-.23-1.6075a3.58,3.58,0,0,1,1.55-3.53v-5.223A9.2446,9.2446,0,0,1,26.9834,5h6.0332A9.2446,9.2446,0,0,1,42,14.4658V16h5a1,1,0,0,1,0,2H42v1.6888a3.58,3.58,0,0,1,1.55,3.53l-.23,1.6079A3.6965,3.6965,0,0,1,41,27.7393v4.6831a4.426,4.426,0,0,1-1.5469,3.3637L38,37.0317v2.56l11.7651,5.315A.9993.9993,0,0,1,50.3525,45.7749ZM40,18H20v1c.0214,0,.0393.0109.06.0122H39.94c.0211-.0013.039-.0122.06-.0122ZM20,14.4658V16H40V14.4658A7.2449,7.2449,0,0,0,33.0166,7H26.9834A7.2449,7.2449,0,0,0,20,14.4658Zm.126,11.5113a.9979.9979,0,0,1,.87.97l8.6877-2.896a1.0014,1.0014,0,0,1,.6328,0l8.6877,2.896a.9979.9979,0,0,1,.87-.97,1.6956,1.6956,0,0,0,1.4668-1.4336l.23-1.6075A1.61,1.61,0,0,0,41,21.4291V22a1,1,0,0,1-2,0v-.9878H21V22a1,1,0,0,1-2,0v-.5709a1.6105,1.6105,0,0,0-.5708,1.5074l.23,1.607A1.6956,1.6956,0,0,0,20.126,25.9771Zm1.7221,8.29,5.0289,4.31A1.7558,1.7558,0,0,0,28.019,39h3.962a1.7559,1.7559,0,0,0,1.1425-.4229l5.0279-4.3095A2.4287,2.4287,0,0,0,39,32.4224V29.0543l-9-3-9,3v3.3681A2.4264,2.4264,0,0,0,21.8481,34.2671ZM30,53a25.7638,25.7638,0,0,0,17.6031-6.8762L38,41.7855V42a1.0006,1.0006,0,0,1-.6089.92l-1.4756.6275a15.21,15.21,0,0,1-11.93-.0328l-1.3823-.5971A1,1,0,0,1,22,42v-.31l-9.6276,4.4112A25.7644,25.7644,0,0,0,30,53ZM61,36.5A3.5,3.5,0,1,1,57.5,33,3.5042,3.5042,0,0,1,61,36.5Zm-2,0A1.5,1.5,0,1,0,57.5,38,1.5017,1.5017,0,0,0,59,36.5ZM35,24a1,1,0,1,0-1-1A1,1,0,0,0,35,24ZM25,24a1,1,0,1,0-1-1A1,1,0,0,0,25,24Zm2.707-10.293L28.4141,13h.4679l.2235.4473A1,1,0,0,0,30,14h4a1,1,0,0,0,0-2H30.6182l-.7237-1.4473a1.0012,1.0012,0,0,0-.7343-.54,1.0129,1.0129,0,0,0-.8672.28l-2,2a1,1,0,0,0,1.414,1.414ZM25.8145,31.2012a35.5948,35.5948,0,0,0,4.1855.58,35.5948,35.5948,0,0,0,4.1855-.58,1,1,0,0,0-.371-1.9649A34.4725,34.4725,0,0,1,30,29.7812a34.4725,34.4725,0,0,1-3.8145-.5449,1,1,0,0,0-.371,1.9649Zm9.4448,2.7646a1,1,0,1,0-.5186-1.9316A30.4474,30.4474,0,0,1,30,33a30.4474,30.4474,0,0,1-4.7407-.9658,1,1,0,0,0-.5186,1.9316A32.33,32.33,0,0,0,30,35,32.33,32.33,0,0,0,35.2593,33.9658Z"/>
</g>
</svg>