<?xml version="1.0" ?>
<!-- Uploaded to: SVG Repo, www.svgrepo.com, Generator: SVG Repo Mixer Tools -->
<svg width="800px" height="800px" viewBox="0 0 64 64" xmlns="http://www.w3.org/2000/svg" xmlns:xlink="http://www.w3.org/1999/xlink">
<defs>
<style>.cls-1{fill:url(#linear-gradient);}</style>
<linearGradient gradientUnits="userSpaceOnUse" id="linear-gradient" x1="5.8467" x2="52.3546" y1="62.2611" y2="15.7532">
<stop offset="0" stop-color="#107eff"/>
<stop offset="1" stop-color="#8f16ff"/>
</linearGradient>
</defs>
<g id="man-mask11">
<path class="cls-1" d="M47.3677,13.5A1.1324,1.1324,0,1,1,48.5,14.6323,1.1323,1.1323,0,0,1,47.3677,13.5Zm4.59,46.2134a1,1,0,1,1-1.916.5732L46.519,48.5171l-7.723-3.8844A7.037,7.037,0,0,1,32,50H24a7.0124,7.0124,0,0,1-6.8182-5.4413L9.4663,48.4956l-3.5078,11.79a1,1,0,0,1-1.917-.57l3.63-12.2a1.0006,1.0006,0,0,1,.5039-.6054L19,41.3857V36.1741l-.4531-.3885A4.4242,4.4242,0,0,1,17,32.4224V27.7393a3.6965,3.6965,0,0,1-2.32-2.9126l-.23-1.6075a3.685,3.685,0,0,1,2.48-4.0161c-.0105-.5644-.0006-1.3545.0163-2.4251a2.4614,2.4614,0,0,1-1.0412-.5612A2.8417,2.8417,0,0,1,15,14.1123V10.686a4.7249,4.7249,0,0,1,.042-.6289,5.345,5.345,0,0,1,3.1-3.9165A11.2772,11.2772,0,0,1,27.96,6.1162l.04.0205.04-.0205a11.2772,11.2772,0,0,1,9.8184.0244,5.3448,5.3448,0,0,1,3.1,3.917A4.7118,4.7118,0,0,1,41,10.686v3.4263a2.8417,2.8417,0,0,1-.9053,2.1045A2.4614,2.4614,0,0,1,39,16.7939V19.18a3.6857,3.6857,0,0,1,2.55,4.0386l-.23,1.6079A3.6965,3.6965,0,0,1,39,27.7393v4.6831a4.426,4.426,0,0,1-1.5469,3.3637L37,36.1746V41.49l10.8027,5.4336a1.0015,1.0015,0,0,1,.5088.607ZM37,32.4224V29.0543l-9-3-9,3v3.3681a2.4264,2.4264,0,0,0,.8481,1.8447l5.0289,4.31A1.7558,1.7558,0,0,0,26.019,39h3.962a1.7559,1.7559,0,0,0,1.1425-.4229l5.0279-4.3095A2.4287,2.4287,0,0,0,37,32.4224Zm2-18.31v-1.117a19.8915,19.8915,0,0,0-7.3165,1.2355l6.7281.633a.4392.4392,0,0,0,.3364-.126A.851.851,0,0,0,39,14.1123Zm-14.6019.1109a19.84,19.84,0,0,0-7.3166-1.2266c-.0286.0024-.0534-.0094-.0815-.0094v1.1251a.851.851,0,0,0,.252.6255.4406.4406,0,0,0,.3369.126ZM22.257,7.0491a15.4436,15.4436,0,0,1,5.8939,5.4755,14.1535,14.1535,0,0,1,5.6147-5.4737,9.067,9.067,0,0,0-4.7888.8342A.9239.9239,0,0,1,29,8V9a1,1,0,0,1-2,0V8a.9239.9239,0,0,1,.0232-.1149A9.055,9.055,0,0,0,22.257,7.0491Zm-4.131,18.928a.9979.9979,0,0,1,.87.97l8.6877-2.896a1.0014,1.0014,0,0,1,.6328,0l8.6877,2.896a.9979.9979,0,0,1,.87-.97,1.6956,1.6956,0,0,0,1.4668-1.4336l.23-1.6075a1.6629,1.6629,0,0,0-.3721-1.3139,1.7056,1.7056,0,0,0-1.2392-.6109A1,1,0,0,1,37,20.0122V16.74l-6.2451-.5875a29.3452,29.3452,0,0,0-5.51,0l-6.2966.5924c-.0282,2.047-.0087,2.7444.0046,2.9648a1,1,0,0,1-.248,1.0117,1.01,1.01,0,0,1-.711.2925,1.7038,1.7038,0,0,0-1.1928.6084,1.6635,1.6635,0,0,0-.3721,1.3144l.23,1.607A1.6956,1.6956,0,0,0,18.126,25.9771ZM36.9232,43.6907l-1.3724-.69A1,1,0,0,1,35,42.1069v-4.218l-2.5752,2.2073A3.76,3.76,0,0,1,29.981,41H26.019a3.76,3.76,0,0,1-2.4433-.9033L21,37.8886V41.998a1,1,0,0,1-.5454.8907l-1.3928.7107A4.9924,4.9924,0,0,0,24,48h2.1973l-1.752-1.168a1,1,0,0,1,1.1094-1.664L28,46.7983l2.4453-1.63a1,1,0,0,1,1.1094,1.664L29.8027,48H32A5.0088,5.0088,0,0,0,36.9232,43.6907Zm-29.0443-7.57a1,1,0,0,0,1.4141,0l.707-.707.707.707a1,1,0,1,0,1.4141-1.4141L11.4141,34l.707-.707a1,1,0,1,0-1.4141-1.4141l-.707.707-.707-.707A1,1,0,1,0,7.8789,33.293l.707.707-.707.707A1,1,0,0,0,7.8789,36.1211ZM55,24.5A3.5,3.5,0,1,1,51.5,21,3.5042,3.5042,0,0,1,55,24.5Zm-2,0A1.5,1.5,0,1,0,51.5,26,1.5017,1.5017,0,0,0,53,24.5ZM32,23a1,1,0,1,0-1-1A1,1,0,0,0,32,23Zm-8,0a1,1,0,1,0-1-1A1,1,0,0,0,24,23ZM39.8037,54.02a1,1,0,0,0-.7842,1.1768l1,5a1,1,0,0,0,.98.8037,1.01,1.01,0,0,0,.1973-.02,1,1,0,0,0,.7842-1.1768l-1-5A.9986.9986,0,0,0,39.8037,54.02Zm-23.6074,0a1,1,0,0,0-1.1768.7842l-1,5a1,1,0,0,0,.7842,1.1768,1.01,1.01,0,0,0,.1973.02,1,1,0,0,0,.9795-.8037l1-5A1,1,0,0,0,16.1963,54.02Zm7.6182-22.8183a35.5948,35.5948,0,0,0,4.1855.58,35.5948,35.5948,0,0,0,4.1855-.58,1,1,0,0,0-.371-1.9649A34.4725,34.4725,0,0,1,28,29.7812a34.4725,34.4725,0,0,1-3.8145-.5449,1,1,0,0,0-.371,1.9649Zm8.9262.833A30.4474,30.4474,0,0,1,28,33a30.4474,30.4474,0,0,1-4.7407-.9658,1,1,0,0,0-.5186,1.9316A32.33,32.33,0,0,0,28,35a32.33,32.33,0,0,0,5.2593-1.0342,1,1,0,1,0-.5186-1.9316Z"/>
</g>
</svg>