<?xml version="1.0" ?>
<!-- Uploaded to: SVG Repo, www.svgrepo.com, Generator: SVG Repo Mixer Tools -->
<svg width="800px" height="800px" viewBox="0 0 64 64" xmlns="http://www.w3.org/2000/svg" xmlns:xlink="http://www.w3.org/1999/xlink">
<defs>
<style>.cls-1{fill:url(#linear-gradient);}</style>
<linearGradient gradientUnits="userSpaceOnUse" id="linear-gradient" x1="5.746" x2="57.5744" y1="59.1605" y2="7.3322">
<stop offset="0" stop-color="#107eff"/>
<stop offset="1" stop-color="#8f16ff"/>
</linearGradient>
</defs>
<g id="man-mask17">
<path class="cls-1" d="M43.5635,43.0479l-1.7327-.5164a.9783.9783,0,0,0-.3835-1.426L38,39.3818v-2.351l.389-.3334,6.4147,1.2831a1.0193,1.0193,0,0,0,.2022.02.9989.9989,0,0,0,.8828-.521.9864.9864,0,0,0-.167-1.1709,12.0233,12.0233,0,0,1-.6514-3.9922A7.3657,7.3657,0,0,0,48,33a1,1,0,0,0,.97-.7573A8.2868,8.2868,0,0,0,47.9736,26H49a1,1,0,0,0,1-1c0-3.3623-1.9854-6.25-3.5449-8H49a1,1,0,0,0,.98-1.1963c-.69-3.4458-3.7754-5.5771-6.0811-6.7158l.417-.1392A1,1,0,0,0,44.8,7.4,6.0634,6.0634,0,0,0,39,4.97a1,1,0,0,0-.6836-.9184,5.9921,5.9921,0,0,0-5.4766.7944C30.832,4.0371,24.1211,1.73,19.4609,4.83a1,1,0,0,0-.0048,1.6621l.6709.4516c-2.2461,1.3609-6.1749,3.9161-7.0215,5.6089a1,1,0,0,0,.4472,1.3418l.584.292c-1.8555,1.6065-4.9277,4.9575-4.1172,9.01a1,1,0,0,0,1.2969.7524l1.1025-.3676-2.3671,7.1025A.9994.9994,0,0,0,11,32h1.9443a4.7419,4.7419,0,0,1-.6513,2.2925,1.2391,1.2391,0,0,0-.2373,1.4624c.7555,1.4748,5.4754,2.213,9.9443,1.6188v2.0081l-3.4473,1.7237a.9664.9664,0,0,0-.4047,1.3791l-1.7544.53A11.1758,11.1758,0,0,0,8.57,51.8394l-1.5517,7.97a1,1,0,1,0,1.9628.3818l1.5557-7.99a9.1943,9.1943,0,0,1,6.4346-7.2715l2.4261-.7323L24.2,50.6a.9985.9985,0,0,0,.7285.3975c.0244.0014.0479.0024.0713.0024a.9984.9984,0,0,0,.707-.293L29,47.4141V60a1,1,0,0,0,2,0V47.4141l3.293,3.2929A.9984.9984,0,0,0,35,51c.0234,0,.0469-.001.0713-.0024A.9985.9985,0,0,0,35.8,50.6l4.7685-6.358,2.4249.7227a9.1978,9.1978,0,0,1,6.4677,7.2906l1.5577,7.937a1,1,0,1,0,1.9628-.3848l-1.5537-7.9165A11.1783,11.1783,0,0,0,43.5635,43.0479ZM20,23a1,1,0,0,0,1-1V15.2578c0-2.08.9971-3.32,3.1377-3.9023a3.8346,3.8346,0,0,1,1.0088-.1333,4.3284,4.3284,0,0,1,3.1709,1.43l.9287,1.021A1,1,0,0,0,29.9844,14h.0019a.9984.9984,0,0,0,.7364-.3237l.9589-1.044a4.24,4.24,0,0,1,4.167-1.28C37.999,11.9326,39,13.1733,39,15.2578V22a1,1,0,0,0,2,0v-.5707a1.6122,1.6122,0,0,1,.57,1.5072l-.23,1.607a1.695,1.695,0,0,1-1.4668,1.4336.9983.9983,0,0,0-.87.97l-8.6877-2.896a1.0014,1.0014,0,0,0-.6328,0l-8.6877,2.896a.9983.9983,0,0,0-.87-.97,1.695,1.695,0,0,1-1.4668-1.4332L18.43,22.9365a1.66,1.66,0,0,1,.3721-1.3144A1.6779,1.6779,0,0,1,19,21.4293V22A1,1,0,0,0,20,23Zm1.8477,11.2671A2.429,2.429,0,0,1,21,32.4224V29.0543l9-3,9,3v3.3681a2.4287,2.4287,0,0,1-.8486,1.8452l-5.0284,4.31A1.7571,1.7571,0,0,1,31.9805,39H28.02a1.7571,1.7571,0,0,1-1.1425-.4224Zm-7.6065.6831A9.9282,9.9282,0,0,0,15,31a1,1,0,0,0-1-1H12.3877l2.56-7.6836a1,1,0,0,0-1.2646-1.2651l-1.79.5966c.1709-3.7592,4.6123-6.7836,4.6621-6.8164a1.0011,1.0011,0,0,0-.1084-1.726l-.8994-.45a43.5544,43.5544,0,0,1,6.9482-4.7876A1,1,0,0,0,22.5586,6.17l-.5742-.3867c4.4795-1.6367,10.53,1.0942,10.5976,1.125a1.0119,1.0119,0,0,0,1.1192-.1963,3.9771,3.9771,0,0,1,2.1328-.96l-.541.541a1,1,0,0,0,1.2187,1.5659c.15-.0889,3.2227-1.8721,5.6143-.2881l-1.4424.48a1,1,0,0,0,.042,1.91c.0576.0166,5.25,1.5386,6.8965,5.0386H44a1.0008,1.0008,0,0,0-.626,1.78c.043.0342,3.9571,3.2246,4.5508,7.22H46a1.0014,1.0014,0,0,0-.71,1.7046,7.0322,7.0322,0,0,1,1.8877,5.2016,3.106,3.106,0,0,1-2.2832-1.3535A1,1,0,0,0,43,30a30.33,30.33,0,0,0,.4424,5.6685l-3.288-.6575A4.4183,4.4183,0,0,0,41,32.4224V27.7393a3.6987,3.6987,0,0,0,2.3213-2.9131l.23-1.6074A3.6876,3.6876,0,0,0,41,19.18V15.2578c0-3-1.6006-5.019-4.63-5.8364a6.1785,6.1785,0,0,0-6.1611,1.8579l-.2188.2383-.1923-.2114a6.2485,6.2485,0,0,0-6.1856-1.88C20.5947,10.2466,19,12.2632,19,15.2578V19.18a3.6876,3.6876,0,0,0-2.5508,4.0386l.2295,1.6079A3.6988,3.6988,0,0,0,19,27.7393v4.6831a4.4058,4.4058,0,0,0,1.3059,3.1067A16.7867,16.7867,0,0,1,14.2412,34.95ZM25.1084,48.4775l-4.59-6.1191,2.3906-1.1948,5.5488,3.9638Zm9.7832,0-3.35-3.35,5.5488-3.9638,2.3906,1.1948ZM10.3676,6.5A1.1324,1.1324,0,1,1,11.5,7.6323,1.1324,1.1324,0,0,1,10.3676,6.5Zm49.7535,6.207a1,1,0,1,1-1.4141,1.4141L58,13.4141l-.707.707a1,1,0,1,1-1.4141-1.4141l.707-.707-.707-.707A1,1,0,1,1,57.293,9.8789l.707.707.707-.707a1,1,0,1,1,1.4141,1.4141l-.707.707ZM56.5,26A3.5,3.5,0,1,0,60,29.5,3.5042,3.5042,0,0,0,56.5,26Zm0,5A1.5,1.5,0,1,1,58,29.5,1.5017,1.5017,0,0,1,56.5,31ZM36,23a1,1,0,1,1-1-1A1,1,0,0,1,36,23ZM26,23a1,1,0,1,1-1-1A1,1,0,0,1,26,23Zm-2.9482-1.6836a1,1,0,0,1,.6318-1.2651l3-1a1,1,0,0,1,.6328,1.8974l-3,1a.9979.9979,0,0,1-1.2646-.6323Zm9-1.6328a.9966.9966,0,0,1,1.2646-.6323l3,1a1,1,0,1,1-.6328,1.8974l-3-1A1,1,0,0,1,32.0518,19.6836Zm-7.0342,10.35a1,1,0,0,1,1.1679-.7969A34.5062,34.5062,0,0,0,30,29.7812a34.5062,34.5062,0,0,0,3.8145-.5449,1,1,0,0,1,.371,1.9649,35.61,35.61,0,0,1-4.1855.58,35.61,35.61,0,0,1-4.1855-.58A.999.999,0,0,1,25.0176,30.0332ZM30,35a32.3,32.3,0,0,1-5.2588-1.0342,1,1,0,1,1,.5176-1.9316A30.4727,30.4727,0,0,0,30,33a30.4727,30.4727,0,0,0,4.7412-.9658,1,1,0,1,1,.5176,1.9316A32.3,32.3,0,0,1,30,35ZM44,54v6a1,1,0,0,1-2,0V54a1,1,0,0,1,2,0ZM18,54v6a1,1,0,0,1-2,0V54a1,1,0,0,1,2,0Z"/>
</g>
</svg>