<?xml version="1.0" ?>
<!-- Uploaded to: SVG Repo, www.svgrepo.com, Generator: SVG Repo Mixer Tools -->
<svg width="800px" height="800px" viewBox="0 0 64 64" xmlns="http://www.w3.org/2000/svg" xmlns:xlink="http://www.w3.org/1999/xlink">
<defs>
<style>.cls-1{fill:url(#linear-gradient);}</style>
<linearGradient gradientUnits="userSpaceOnUse" id="linear-gradient" x1="7.93" x2="58.2583" y1="61.3443" y2="11.0161">
<stop offset="0" stop-color="#107eff"/>
<stop offset="1" stop-color="#8f16ff"/>
</linearGradient>
</defs>
<g id="man-mask16">
<path class="cls-1" d="M49.6387,43.8589,39.4214,40.8137l.0327-.0281A4.4265,4.4265,0,0,0,41,37.4224V29.7393a3.6987,3.6987,0,0,0,2.3213-2.9131l.23-1.6074a3.6845,3.6845,0,0,0-.7637-2.799l7.0859-.3221A3.0834,3.0834,0,0,0,53,19.2207a2.69,2.69,0,0,0-.9629-2.0391,3.6251,3.6251,0,0,0-2.8213-.811l-6.5918.5578L42,10.3037a3.3767,3.3767,0,0,0-1.2129-2.6372,2.8858,2.8858,0,0,0-2.4082-.6089L30.73,8.6172a3.6352,3.6352,0,0,1-1.459,0l-7.65-1.56a2.8828,2.8828,0,0,0-2.4072.6089,3.3086,3.3086,0,0,0-1.209,2.5439l-.6281,6.719-6.5638-.5549a3.6274,3.6274,0,0,0-2.85.8071A2.69,2.69,0,0,0,7,19.2207a3.0832,3.0832,0,0,0,3.126,2.877l7.0874.3207a3.6847,3.6847,0,0,0-.7637,2.8008l.23,1.6075A3.6965,3.6965,0,0,0,19,29.7393v7.6831a4.4226,4.4226,0,0,0,1.5281,3.3432L10.3408,43.8423a1.0006,1.0006,0,0,0-.6963.7871l-2.63,15.2a1,1,0,0,0,.815,1.1558A1.03,1.03,0,0,0,8.001,61a1,1,0,0,0,.9844-.83L11.51,45.5786l10.8175-3.2667,1.2946,1.11L20.36,47H19a1,1,0,0,0,0,2h1.4472c2.5233,5.1642,5.8918,8,9.5479,8s7.0256-2.8361,9.549-8H41a1,1,0,0,0,0-2H39.6066l-3.2741-3.5394,1.2819-1.0985,10.86,3.237,2.54,14.5728A1,1,0,0,0,51.999,61a1.0574,1.0574,0,0,0,.1729-.0146,1.0007,1.0007,0,0,0,.8135-1.1573L50.3389,44.6455A1.0005,1.0005,0,0,0,49.6387,43.8589ZM33.123,43.5776A1.7571,1.7571,0,0,1,31.9805,44H28.019a1.7558,1.7558,0,0,1-1.142-.4224l-5.0289-4.31A2.4264,2.4264,0,0,1,21,37.4224v-3.368l6.6471-2.2157a2.9642,2.9642,0,0,0,4.706,0L39,34.0543v3.3681a2.4308,2.4308,0,0,1-.8477,1.8452ZM20,10.3037a1.4026,1.4026,0,0,1,.4785-1.0879.8743.8743,0,0,1,.7427-.1982l7.6494,1.56a5.6394,5.6394,0,0,0,2.2593,0l7.6484-1.5595a.8745.8745,0,0,1,.7432.1977,1.4832,1.4832,0,0,1,.4824,1.1817l.6267,6.7L30,17.9966l-10.6312-.8988Zm-1.3408,16.24-.23-1.607a1.6635,1.6635,0,0,1,.3721-1.3144A1.6888,1.6888,0,0,1,20,23.0122H39.9775a1.7008,1.7008,0,0,1,1.2207.61,1.66,1.66,0,0,1,.3721,1.3144l-.23,1.607a1.643,1.643,0,0,1-.3408.76V26a1,1,0,0,0-2,0v5.9459l-6-2V29a1,1,0,0,0-2,0v1a1,1,0,0,1-2,0V29a1,1,0,0,0-2,0v.946l-6,2V26a1,1,0,0,0-2,0v1.3035A1.644,1.644,0,0,1,18.6592,26.5435ZM36.8817,47H36a1,1,0,0,0,0,2h1.296c-2.0782,3.8338-4.6847,6-7.3009,6s-5.2211-2.1664-7.2993-6H24a1,1,0,0,0,0-2h-.9343l2.0752-2.2761.4348.3728A3.76,3.76,0,0,0,28.019,46h3.9615a3.7555,3.7555,0,0,0,2.4433-.9038l.3885-.3329ZM9.3676,31.5A1.1324,1.1324,0,1,1,10.5,32.6323,1.1324,1.1324,0,0,1,9.3676,31.5ZM57.1211,12.707a1,1,0,1,1-1.4141,1.4141L55,13.4141l-.707.707a1,1,0,1,1-1.4141-1.4141l.707-.707-.707-.707A1,1,0,1,1,54.293,9.8789l.707.707.707-.707a1,1,0,1,1,1.4141,1.4141l-.707.707ZM53.5,34A3.5,3.5,0,1,0,57,37.5,3.5042,3.5042,0,0,0,53.5,34Zm0,5A1.5,1.5,0,1,1,55,37.5,1.5017,1.5017,0,0,1,53.5,39ZM25.0176,35.0332a.9949.9949,0,0,1,1.1679-.7969A34.4556,34.4556,0,0,0,30,34.7812a34.5062,34.5062,0,0,0,3.8145-.5449,1,1,0,0,1,.371,1.9649,35.61,35.61,0,0,1-4.1855.58,35.5948,35.5948,0,0,1-4.1855-.58A.9994.9994,0,0,1,25.0176,35.0332Zm10.9482,2.7075a.9991.9991,0,0,1-.707,1.2251A32.3,32.3,0,0,1,30,40a32.33,32.33,0,0,1-5.2593-1.0342,1,1,0,0,1,.5186-1.9316A30.4474,30.4474,0,0,0,30,38a30.4727,30.4727,0,0,0,4.7412-.9658A1.0034,1.0034,0,0,1,35.9658,37.7407ZM25,26a1,1,0,1,1,1,1A1,1,0,0,1,25,26Zm8,0a1,1,0,1,1,1,1A1,1,0,0,1,33,26ZM31,48a1,1,0,1,1-1-1A1,1,0,0,1,31,48Zm0,4a1,1,0,1,1-1-1A1,1,0,0,1,31,52Zm13,1v7a1,1,0,0,1-2,0V53a1,1,0,0,1,2,0ZM18,53v7a1,1,0,0,1-2,0V53a1,1,0,0,1,2,0Z"/>
</g>
</svg>