<?xml version="1.0" ?>
<!-- Uploaded to: SVG Repo, www.svgrepo.com, Generator: SVG Repo Mixer Tools -->
<svg width="800px" height="800px" viewBox="0 0 64 64" xmlns="http://www.w3.org/2000/svg" xmlns:xlink="http://www.w3.org/1999/xlink">
<defs>
<style>.cls-1{fill:url(#linear-gradient);}</style>
<linearGradient gradientUnits="userSpaceOnUse" id="linear-gradient" x1="9.5118" x2="57.1926" y1="61.9261" y2="14.2453">
<stop offset="0" stop-color="#107eff"/>
<stop offset="1" stop-color="#8f16ff"/>
</linearGradient>
</defs>
<g id="man-mask15">
<path class="cls-1" d="M49.3676,29.5A1.1324,1.1324,0,1,1,50.5,30.6323,1.1324,1.1324,0,0,1,49.3676,29.5Zm3.06,21.3911,1.5577,8.937a1.0007,1.0007,0,0,1-.8135,1.1573A1.0528,1.0528,0,0,1,52.999,61a1.0008,1.0008,0,0,1-.9844-.8281l-1.5576-8.937a9.1885,9.1885,0,0,0-6.4648-7.27l-7.174-2.138-2.01,2.7616A.9993.9993,0,0,1,34,45H28a.9993.9993,0,0,1-.8086-.4116l-2.0541-2.8228-1.8756.5663L33.9731,59.47a1,1,0,1,1-1.6962,1.06L21.2776,42.931,19,43.6187V60a1,1,0,0,1-2,0V44.2977a9.1745,9.1745,0,0,0-5.4629,6.903L9.9854,60.17A1,1,0,0,1,9.001,61a1.03,1.03,0,0,1-.1714-.0146,1,1,0,0,1-.815-1.1558l1.5518-8.97A11.1688,11.1688,0,0,1,16,42.5428v-24.82A12.7374,12.7374,0,0,1,28.7231,5h4.5538A12.7374,12.7374,0,0,1,46,17.7231V42.5869A11.1661,11.1661,0,0,1,52.4277,50.8911ZM18,17.7231v3.9845a3.6734,3.6734,0,0,1,1.021-1.0455A8.2677,8.2677,0,0,1,27.2568,13H30V10a1,1,0,0,1,2,0v3h2.7432a8.2677,8.2677,0,0,1,8.2358,7.6621A3.6743,3.6743,0,0,1,44,21.7075V17.7231A10.7354,10.7354,0,0,0,33.2769,7H28.7231A10.7354,10.7354,0,0,0,18,17.7231Zm24.3408,7.82.23-1.6075a1.6726,1.6726,0,0,0-.9829-1.768A1,1,0,0,1,41,21.2568,6.2636,6.2636,0,0,0,34.7432,15H27.2568A6.2636,6.2636,0,0,0,21,21.2568a1,1,0,0,1-.5879.9112,1.6729,1.6729,0,0,0-.9829,1.7685l.23,1.607a1.6956,1.6956,0,0,0,1.4668,1.4336,1,1,0,0,1,.874.9921v1.9767l8.6836-2.8946a1.0014,1.0014,0,0,1,.6328,0L40,29.9459V27.9692a1,1,0,0,1,.874-.9921A1.6956,1.6956,0,0,0,42.3408,25.5435Zm-3.3471,9.895a1.0062,1.0062,0,0,1,.1577-.1709A2.4287,2.4287,0,0,0,40,33.4224V32.0543l-9-3-9,3v1.3681a2.4264,2.4264,0,0,0,.8481,1.8447.9891.9891,0,0,1,.1582.1709L28.5093,43h4.9814ZM44,52a1,1,0,0,0-1,1v7a1,1,0,0,0,2,0V53A1,1,0,0,0,44,52ZM8.8789,37.1211a1,1,0,0,0,1.4141,0l.707-.707.707.707a1,1,0,1,0,1.4141-1.4141L12.4141,35l.707-.707a1,1,0,1,0-1.4141-1.4141l-.707.707-.707-.707A1,1,0,1,0,8.8789,34.293l.707.707-.707.707A1,1,0,0,0,8.8789,37.1211ZM58,16.5A3.5,3.5,0,1,1,54.5,13,3.5042,3.5042,0,0,1,58,16.5Zm-2,0A1.5,1.5,0,1,0,54.5,18,1.5017,1.5017,0,0,0,56,16.5ZM36,24a1,1,0,1,0,1,1A1,1,0,0,0,36,24ZM26,24a1,1,0,1,0,1,1A1,1,0,0,0,26,24Zm12-3H34a1,1,0,0,0,0,2h4a1,1,0,0,0,0-2ZM28,21H24a1,1,0,0,0,0,2h4a1,1,0,0,0,0-2ZM26.8145,34.2012a35.5948,35.5948,0,0,0,4.1855.58,35.5948,35.5948,0,0,0,4.1855-.58,1,1,0,0,0-.371-1.9649A34.4725,34.4725,0,0,1,31,32.7812a34.4725,34.4725,0,0,1-3.8145-.5449,1,1,0,0,0-.371,1.9649Zm8.9262.833A30.4474,30.4474,0,0,1,31,36a30.4474,30.4474,0,0,1-4.7407-.9658,1,1,0,0,0-.5186,1.9316A32.33,32.33,0,0,0,31,38a32.33,32.33,0,0,0,5.2593-1.0342,1,1,0,1,0-.5186-1.9316Z"/>
</g>
</svg>