<?xml version="1.0" ?>
<!-- Uploaded to: SVG Repo, www.svgrepo.com, Generator: SVG Repo Mixer Tools -->
<svg width="800px" height="800px" viewBox="0 0 64 64" xmlns="http://www.w3.org/2000/svg" xmlns:xlink="http://www.w3.org/1999/xlink">
<defs>
<style>.cls-1{fill:url(#linear-gradient);}</style>
<linearGradient gradientUnits="userSpaceOnUse" id="linear-gradient" x1="8.7929" x2="51.8007" y1="63.2071" y2="20.1993">
<stop offset="0" stop-color="#107eff"/>
<stop offset="1" stop-color="#8f16ff"/>
</linearGradient>
</defs>
<g id="man-mask8">
<path class="cls-1" d="M43.6935,43.0966A4.4539,4.4539,0,0,0,44,41.5,4.505,4.505,0,0,0,39.5,37H38.036l1.4161-1.2139A4.4252,4.4252,0,0,0,41,32.4224V27.7393a3.6987,3.6987,0,0,0,2.3213-2.9131l.23-1.6074A3.6876,3.6876,0,0,0,41,19.18V15.2578a8.2638,8.2638,0,0,0-7.5916-8.224L32.9951,2.9A1,1,0,0,0,32,2H28a1,1,0,0,0-.9951.9l-.4133,4.1334A8.2638,8.2638,0,0,0,19,15.2578V19.18a3.6876,3.6876,0,0,0-2.5508,4.0386l.2295,1.6079A3.6988,3.6988,0,0,0,19,27.7393v4.6831a4.4233,4.4233,0,0,0,1.5469,3.3632L21.9637,37H20.5A4.505,4.505,0,0,0,16,41.5a4.4516,4.4516,0,0,0,.2927,1.5524A11.1792,11.1792,0,0,0,8.5664,51.86L7.0146,60.83a1,1,0,0,0,.8145,1.1558A1.0455,1.0455,0,0,0,8.001,62a1,1,0,0,0,.9844-.83l1.5517-8.97a9.1943,9.1943,0,0,1,6.4346-7.2715l.4753-.1434A4.4705,4.4705,0,0,0,20.5,46h19a4.4664,4.4664,0,0,0,3.01-1.179l.4829.1438a9.1889,9.1889,0,0,1,6.4638,7.27l1.5576,8.937A1,1,0,0,0,51.999,62a1.0574,1.0574,0,0,0,.1729-.0146,1.0007,1.0007,0,0,0,.8135-1.1573l-1.5577-8.937A11.1713,11.1713,0,0,0,43.6935,43.0966ZM18.6592,24.5439,18.43,22.9365a1.66,1.66,0,0,1,.3721-1.3144A1.6779,1.6779,0,0,1,19,21.4293V22a1,1,0,0,0,2,0V15.2578a6.2624,6.2624,0,0,1,5.3881-6.19L26.0049,12.9a1,1,0,0,0,1.3115,1.0483,8.5358,8.5358,0,0,1,5.3672,0A1,1,0,0,0,33.9951,12.9l-.3832-3.8327A6.2624,6.2624,0,0,1,39,15.2578V22a1,1,0,0,0,2,0v-.5707a1.6122,1.6122,0,0,1,.57,1.5072l-.23,1.607a1.695,1.695,0,0,1-1.4668,1.4336.9983.9983,0,0,0-.87.97L33,24.946V24a1,1,0,0,0-2,0v2a1,1,0,0,1-2,0V24a1,1,0,0,0-2,0v.946l-6.0041,2.0013a.9983.9983,0,0,0-.87-.97A1.695,1.695,0,0,1,18.6592,24.5439ZM21,32.4224v-3.368l6.1823-2.0608a2.9817,2.9817,0,0,0,5.6354,0L39,29.0544v3.368a2.4287,2.4287,0,0,1-.8486,1.8452l-5.0284,4.31A1.7571,1.7571,0,0,1,31.9805,39H28.02a1.7571,1.7571,0,0,1-1.1425-.4224l-5.0293-4.31A2.429,2.429,0,0,1,21,32.4224ZM39.5,44h-19a2.5,2.5,0,0,1,0-5h3.7972l1.279,1.0962A3.7555,3.7555,0,0,0,28.02,41h3.961a3.7555,3.7555,0,0,0,2.4433-.9038L35.7027,39H39.5a2.5,2.5,0,0,1,0,5ZM43,54v7a1,1,0,0,1-2,0V54a1,1,0,0,1,2,0ZM19,54v7a1,1,0,0,1-2,0V54a1,1,0,0,1,2,0ZM51.3676,22.5A1.1324,1.1324,0,1,1,52.5,23.6323,1.1324,1.1324,0,0,1,51.3676,22.5ZM7.5859,32.4141a1,1,0,0,1-.707-1.7071L7.5859,30l-.707-.707A1,1,0,0,1,8.293,27.8789l.707.707.707-.707a1,1,0,0,1,1.4141,1.4141l-.707.707.707.707A1,1,0,1,1,9.707,32.1211L9,31.4141l-.707.707A.9969.9969,0,0,1,7.5859,32.4141ZM50.5,37A3.5,3.5,0,1,0,47,33.5,3.5042,3.5042,0,0,0,50.5,37Zm0-5A1.5,1.5,0,1,1,49,33.5,1.5017,1.5017,0,0,1,50.5,32ZM36,23a1,1,0,1,1-1-1A1,1,0,0,1,36,23ZM24,23a1,1,0,1,1,1,1A1,1,0,0,1,24,23Zm0-3a1,1,0,0,1,1-1h3a1,1,0,0,1,0,2H25A1,1,0,0,1,24,20Zm7,0a1,1,0,0,1,1-1h3a1,1,0,0,1,0,2H32A1,1,0,0,1,31,20ZM25.0176,30.0332a1,1,0,0,1,1.1679-.7969A34.5062,34.5062,0,0,0,30,29.7812a34.5062,34.5062,0,0,0,3.8145-.5449,1,1,0,0,1,.371,1.9649,35.61,35.61,0,0,1-4.1855.58,35.61,35.61,0,0,1-4.1855-.58A.999.999,0,0,1,25.0176,30.0332ZM30,35a32.3,32.3,0,0,1-5.2588-1.0342,1,1,0,1,1,.5176-1.9316A30.4727,30.4727,0,0,0,30,33a30.4727,30.4727,0,0,0,4.7412-.9658,1,1,0,1,1,.5176,1.9316A32.3,32.3,0,0,1,30,35Z"/>
</g>
</svg>