<?xml version="1.0" ?>
<!-- Uploaded to: SVG Repo, www.svgrepo.com, Generator: SVG Repo Mixer Tools -->
<svg width="800px" height="800px" viewBox="0 0 64 64" xmlns="http://www.w3.org/2000/svg" xmlns:xlink="http://www.w3.org/1999/xlink">
<defs>
<style>.cls-1{fill:url(#linear-gradient);}</style>
<linearGradient gradientUnits="userSpaceOnUse" id="linear-gradient" x1="8.3627" x2="56.691" y1="64.777" y2="16.4488">
<stop offset="0" stop-color="#107eff"/>
<stop offset="1" stop-color="#8f16ff"/>
</linearGradient>
</defs>
<g id="man-mask4">
<path class="cls-1" d="M44.8613,45.4346,36.9954,43.09c0-.03.0046-.06.0046-.09V39.8889l2.4531-2.1028A4.426,4.426,0,0,0,41,34.4224V29.7393a3.6965,3.6965,0,0,0,2.32-2.9126l.23-1.6079a3.6888,3.6888,0,0,0-.8145-2.8765c-.0431-.0518-.0979-.09-.1435-.1394A1.9724,1.9724,0,0,0,43,21.0088V18.9912a1.9843,1.9843,0,0,0-1-1.7167V16a10.0131,10.0131,0,0,0-9-9.9493V5.4365A2.44,2.44,0,0,0,30.5635,3h-1.127A2.44,2.44,0,0,0,27,5.4365v.6142A10.0131,10.0131,0,0,0,18,16v1.2745a1.9843,1.9843,0,0,0-1,1.7167v2.0176a1.9724,1.9724,0,0,0,.4077,1.1941c-.0456.0491-.1.0876-.1435.1394a3.6893,3.6893,0,0,0-.8145,2.8769l.23,1.6075A3.6965,3.6965,0,0,0,19,29.7393v4.6831a4.4242,4.4242,0,0,0,1.5469,3.3632L23,39.8886V43l.001.0191-7.9,2.3857a9.0066,9.0066,0,0,0-6.3037,7.1245L7.0146,62.83a1,1,0,0,0,.815,1.1558A1.03,1.03,0,0,0,8.001,64a1,1,0,0,0,.9844-.83l1.7822-10.3a7.0162,7.0162,0,0,1,4.9111-5.55L23.3,45.0186a6.9988,6.9988,0,0,0,13.3833.0658L44.29,47.3516a7.0139,7.0139,0,0,1,4.9346,5.5493l1.79,10.271A1.0008,1.0008,0,0,0,51.999,64a1.0528,1.0528,0,0,0,.1729-.0146,1.0007,1.0007,0,0,0,.8135-1.1573l-1.79-10.271A9.0047,9.0047,0,0,0,44.8613,45.4346ZM19,21.0088,18.9912,19H41v2ZM30,8a5.6677,5.6677,0,0,1,5.6616,5.6616V17H24.3384V13.6616A5.6677,5.6677,0,0,1,30,8ZM41.0088,21.2V21h.0005l0,.2ZM29.4365,5h1.127A.437.437,0,0,1,31,5.4365V6H29V5.4365A.437.437,0,0,1,29.4365,5ZM18.6592,26.5435l-.23-1.607A1.6105,1.6105,0,0,1,19,23.4291V24a1,1,0,0,0,2,0V23H39v1a1,1,0,0,0,2,0v-.5709a1.61,1.61,0,0,1,.5708,1.5069l-.23,1.6075a1.6956,1.6956,0,0,1-1.4668,1.4336.9979.9979,0,0,0-.87.97l-8.6877-2.896a1.0014,1.0014,0,0,0-.6328,0l-8.6877,2.896a.9979.9979,0,0,0-.87-.97A1.6956,1.6956,0,0,1,18.6592,26.5435ZM21,34.4224V31.0543l9-3,9,3v3.3681a2.4287,2.4287,0,0,1-.8486,1.8452l-5.0279,4.31A1.7559,1.7559,0,0,1,31.981,41H28.019a1.7558,1.7558,0,0,1-1.142-.4224l-5.0289-4.31A2.4264,2.4264,0,0,1,21,34.4224ZM30,48a5.0059,5.0059,0,0,1-5-5V41.6031l.5757.4936A3.76,3.76,0,0,0,28.019,43h3.962a3.76,3.76,0,0,0,2.4438-.9038L35,41.6031V43A5.0059,5.0059,0,0,1,30,48ZM7.3676,23.5A1.1324,1.1324,0,1,1,8.5,24.6323,1.1324,1.1324,0,0,1,7.3676,23.5Zm41.5113-7.793.707-.707-.707-.707a1,1,0,1,1,1.4141-1.4141l.707.707.707-.707a1,1,0,1,1,1.4141,1.4141l-.707.707.707.707a1,1,0,1,1-1.4141,1.4141L51,16.4141l-.707.707a1,1,0,1,1-1.4141-1.4141ZM51.5,31A3.5,3.5,0,1,0,55,34.5,3.5042,3.5042,0,0,0,51.5,31Zm0,5A1.5,1.5,0,1,1,53,34.5,1.5017,1.5017,0,0,1,51.5,36ZM34,25a1,1,0,1,1,1,1A1,1,0,0,1,34,25ZM24,25a1,1,0,1,1,1,1A1,1,0,0,1,24,25Zm1.0176,7.0332a.9942.9942,0,0,1,1.1679-.7969A34.4725,34.4725,0,0,0,30,31.7812a34.4725,34.4725,0,0,0,3.8145-.5449,1,1,0,0,1,.371,1.9649,35.5948,35.5948,0,0,1-4.1855.58,35.5948,35.5948,0,0,1-4.1855-.58A.9994.9994,0,0,1,25.0176,32.0332ZM30,37a32.33,32.33,0,0,1-5.2593-1.0342,1,1,0,0,1,.5186-1.9316A30.4474,30.4474,0,0,0,30,35a30.4474,30.4474,0,0,0,4.7407-.9658,1,1,0,1,1,.5186,1.9316A32.33,32.33,0,0,1,30,37ZM44,56v7a1,1,0,0,1-2,0V56a1,1,0,0,1,2,0ZM18,56v7a1,1,0,0,1-2,0V56a1,1,0,0,1,2,0Zm22,2a1,1,0,0,1-1,1H37.4141L35.707,60.707A1,1,0,0,1,35,61a1.0429,1.0429,0,0,1-.16-.0127,1.0012,1.0012,0,0,1-.7343-.54l-.92-1.8409-.2364.71a1,1,0,0,1-1.8974-.6328l1-3a1.001,1.001,0,0,1,.8779-.6812,1.0178,1.0178,0,0,1,.9653.55l1.3794,2.7593,1.0191-1.019A1,1,0,0,1,37,57h2A1,1,0,0,1,40,58Z"/>
</g>
</svg>