<?xml version="1.0" ?>
<!-- Uploaded to: SVG Repo, www.svgrepo.com, Generator: SVG Repo Mixer Tools -->
<svg width="800px" height="800px" viewBox="0 0 64 64" xmlns="http://www.w3.org/2000/svg" xmlns:xlink="http://www.w3.org/1999/xlink">
<defs>
<style>.cls-1{fill:url(#linear-gradient);}</style>
<linearGradient gradientUnits="userSpaceOnUse" id="linear-gradient" x1="9.1128" x2="53.9411" y1="62.5271" y2="17.6989">
<stop offset="0" stop-color="#107eff"/>
<stop offset="1" stop-color="#8f16ff"/>
</linearGradient>
</defs>
<g id="man-mask14">
<path class="cls-1" d="M44.8613,42.4346,43,41.88V39.604A2.6068,2.6068,0,0,0,40.396,37H39.2036l.2495-.2139A4.426,4.426,0,0,0,41,33.4224V28.7393a3.6965,3.6965,0,0,0,2.32-2.9126l.23-1.6079a3.6888,3.6888,0,0,0-.8145-2.8765c-.0431-.0518-.0979-.09-.1436-.1394A1.972,1.972,0,0,0,43,20.0088V17.9912a1.9843,1.9843,0,0,0-1-1.7167V16a10.0159,10.0159,0,0,0-8.0143-9.8007C33.989,6.1327,34,6.0669,34,6a4,4,0,0,0-8,0c0,.067.0119.1326.0152.1992A10.0159,10.0159,0,0,0,18,16v.2745a1.9843,1.9843,0,0,0-1,1.7167v2.0176a1.9724,1.9724,0,0,0,.4077,1.1941c-.0456.0491-.1.0876-.1435.1394a3.6893,3.6893,0,0,0-.8145,2.8769l.23,1.6075A3.6965,3.6965,0,0,0,19,28.7393v4.6831a4.4242,4.4242,0,0,0,1.5469,3.3632l.25.2144H19.604A2.6068,2.6068,0,0,0,17,39.604v2.2274l-1.8994.5739a9.0058,9.0058,0,0,0-6.3037,7.124L7.0146,59.83a1,1,0,0,0,.815,1.1558A1.03,1.03,0,0,0,8.001,61a1,1,0,0,0,.9844-.83l1.7822-10.3a7.0162,7.0162,0,0,1,4.9111-5.55L17,43.9209v.4751A2.6068,2.6068,0,0,0,19.604,47H20v1a1,1,0,0,0,2,0V47h2v1a1,1,0,0,0,2,0V47h2v8a1,1,0,0,0,1,1h1v1a1,1,0,0,0,2,0V56h1v1a1,1,0,0,0,2,0V56h1a1,1,0,0,0,1-1V47h2v1a1,1,0,0,0,2,0V46.9222a2.6034,2.6034,0,0,0,2-2.5262v-.4289l1.29.3845a7.0139,7.0139,0,0,1,4.9346,5.5493l1.79,10.271A1.0008,1.0008,0,0,0,51.999,61a1.0528,1.0528,0,0,0,.1729-.0146,1.0007,1.0007,0,0,0,.8135-1.1573l-1.79-10.271A9.0047,9.0047,0,0,0,44.8613,42.4346ZM21.8481,35.2671A2.4264,2.4264,0,0,1,21,33.4224V30.0543l9-3,9,3v3.3681a2.4287,2.4287,0,0,1-.8486,1.8452l-5.0279,4.31A1.7559,1.7559,0,0,1,31.981,40H28.019a1.7558,1.7558,0,0,1-1.142-.4224ZM41.0088,20.2045V20h.0005l0,.2047ZM30,4a2.002,2.002,0,0,1,2,2H28A2.002,2.002,0,0,1,30,4ZM28,8h4a8.0092,8.0092,0,0,1,8,8H20A8.0092,8.0092,0,0,1,28,8ZM18.6592,25.5435l-.23-1.607a1.6635,1.6635,0,0,1,.3721-1.3144A1.6812,1.6812,0,0,1,19,22.4285V23a1,1,0,0,0,2,0v-.9879l18-.0008V23a1,1,0,0,0,2,0v-.5709a1.61,1.61,0,0,1,.5708,1.5069l-.23,1.6075a1.6956,1.6956,0,0,1-1.4668,1.4336.9979.9979,0,0,0-.87.97l-8.6877-2.896a1.0014,1.0014,0,0,0-.6328,0l-8.6877,2.896a.9979.9979,0,0,0-.87-.97A1.6956,1.6956,0,0,1,18.6592,25.5435ZM35,54H30V47h5Zm6-9.604a.6047.6047,0,0,1-.604.604H19.604A.6047.6047,0,0,1,19,44.396V39.604A.6047.6047,0,0,1,19.604,39H23.13l2.4458,2.0967A3.76,3.76,0,0,0,28.019,42h3.962a3.76,3.76,0,0,0,2.4438-.9038L36.87,39H40.396a.6047.6047,0,0,1,.604.604ZM44,53v7a1,1,0,0,1-2,0V53a1,1,0,0,1,2,0ZM18,53v7a1,1,0,0,1-2,0V53a1,1,0,0,1,2,0ZM9.3676,25.5A1.1324,1.1324,0,1,1,10.5,26.6323,1.1324,1.1324,0,0,1,9.3676,25.5Zm40.5113-4.793.707-.707-.707-.707a1,1,0,1,1,1.4141-1.4141l.707.707.707-.707a1,1,0,1,1,1.4141,1.4141l-.707.707.707.707a1,1,0,1,1-1.4141,1.4141L52,21.4141l-.707.707a1,1,0,1,1-1.4141-1.4141ZM55.5,45A3.5,3.5,0,1,0,59,48.5,3.5042,3.5042,0,0,0,55.5,45Zm0,5A1.5,1.5,0,1,1,57,48.5,1.5017,1.5017,0,0,1,55.5,50ZM34,24a1,1,0,1,1,1,1A1,1,0,0,1,34,24ZM24,24a1,1,0,1,1,1,1A1,1,0,0,1,24,24Zm1.0176,7.0332a.996.996,0,0,1,1.1679-.7969A34.4725,34.4725,0,0,0,30,30.7812a34.4725,34.4725,0,0,0,3.8145-.5449,1,1,0,0,1,.371,1.9649,35.5948,35.5948,0,0,1-4.1855.58,35.5948,35.5948,0,0,1-4.1855-.58A.9994.9994,0,0,1,25.0176,31.0332ZM30,36a32.33,32.33,0,0,1-5.2593-1.0342,1,1,0,0,1,.5186-1.9316A30.4474,30.4474,0,0,0,30,34a30.4474,30.4474,0,0,0,4.7407-.9658,1,1,0,1,1,.5186,1.9316A32.33,32.33,0,0,1,30,36Z"/>
</g>
</svg>