<?xml version="1.0" ?>
<!-- Uploaded to: SVG Repo, www.svgrepo.com, Generator: SVG Repo Mixer Tools -->
<svg width="800px" height="800px" viewBox="0 0 64 64" xmlns="http://www.w3.org/2000/svg" xmlns:xlink="http://www.w3.org/1999/xlink">
<defs>
<style>.cls-1{fill:url(#linear-gradient);}</style>
<linearGradient gradientUnits="userSpaceOnUse" id="linear-gradient" x1="6.9961" x2="52.4103" y1="60.4104" y2="14.9962">
<stop offset="0" stop-color="#107eff"/>
<stop offset="1" stop-color="#8f16ff"/>
</linearGradient>
</defs>
<g id="man-mask5">
<path class="cls-1" d="M9.3676,10.5A1.1324,1.1324,0,1,1,10.5,11.6323,1.1324,1.1324,0,0,1,9.3676,10.5ZM9.293,39.1211l.707-.707.707.707a1,1,0,1,0,1.4141-1.4141L11.4141,37l.707-.707a1,1,0,1,0-1.4141-1.4141l-.707.707-.707-.707A1,1,0,1,0,7.8789,36.293l.707.707-.707.707A1,1,0,1,0,9.293,39.1211Zm43.1347,12.77,1.5577,8.937a1.0007,1.0007,0,0,1-.8135,1.1573A1.0528,1.0528,0,0,1,52.999,62a1.0008,1.0008,0,0,1-.9844-.8281l-1.5576-8.937a9.1885,9.1885,0,0,0-6.4648-7.27L41,44.0731V46a7.0094,7.0094,0,0,1-6.5728,6.9873l-2.72,2.72a.9995.9995,0,0,1-1.414,0l-2.72-2.72A7.0094,7.0094,0,0,1,21,46V44.0148l-3.0283.9144a9.1926,9.1926,0,0,0-6.4346,7.2715L9.9854,61.17A1,1,0,0,1,9.001,62a1.03,1.03,0,0,1-.1714-.0146,1,1,0,0,1-.815-1.1558l1.5518-8.97a11.1828,11.1828,0,0,1,7.8272-8.8457L24,41.02V39.8886l-2.4531-2.103A4.4242,4.4242,0,0,1,20,34.4224V27.7393a3.6965,3.6965,0,0,1-2.32-2.9126l-.23-1.6075A3.6465,3.6465,0,0,1,19,19.6768V18.659A3.502,3.502,0,0,1,17,15.5v-2a3.4935,3.4935,0,0,1,1.6016-2.9414A5.5059,5.5059,0,0,1,24,6a5.38,5.38,0,0,1,2.7568.7588A5.4014,5.4014,0,0,1,29.5186,6H43a1,1,0,0,1,1,1,9.8576,9.8576,0,0,1-.6494,3.5332A3.5182,3.5182,0,0,1,45,13.5v2a3.495,3.495,0,0,1-2,3.1489v1.0279a3.6462,3.6462,0,0,1,1.55,3.542l-.23,1.6079A3.6965,3.6965,0,0,1,42,27.7393v6.6831a4.426,4.426,0,0,1-1.5469,3.3637L38,39.8889v1.2029l6.5635,1.9561A11.1791,11.1791,0,0,1,52.4277,51.8911ZM19,15.5A1.5017,1.5017,0,0,0,20.5,17h.5474a1,1,0,0,1,.9819.81A1.471,1.471,0,0,0,23.4712,19h5.0576a1.471,1.471,0,0,0,1.4419-1.19c.0054-.0278.0218-.05.0293-.0766V15a1,1,0,0,1,2,0v2h9.5A1.5017,1.5017,0,0,0,43,15.5v-2a1.505,1.505,0,0,0-1.1836-1.4644,1.0005,1.0005,0,0,1-.6826-1.43A7.9391,7.9391,0,0,0,41.9375,8H29.5186a3.4756,3.4756,0,0,0-2.1485.7559.9993.9993,0,0,1-1.23-.0015A3.4536,3.4536,0,0,0,24,8a3.5,3.5,0,0,0-3.4717,3.2632,1,1,0,0,1-.61.854A1.4968,1.4968,0,0,0,19,13.5Zm2.126,10.4771a1,1,0,0,1,.874.9921v1.9767l8.6836-2.8946a1.0014,1.0014,0,0,1,.6328,0L40,28.9459V26.9692a1,1,0,0,1,.874-.9921,1.6956,1.6956,0,0,0,1.4668-1.4336l.23-1.6075a1.6726,1.6726,0,0,0-.9829-1.768A1,1,0,0,1,41,20.2568V19H31.6714a3.4763,3.4763,0,0,1-3.1426,2H23.4712A3.46,3.46,0,0,1,21,19.952v.3048a1,1,0,0,1-.5879.9112,1.6729,1.6729,0,0,0-.9829,1.7685l.23,1.607A1.6956,1.6956,0,0,0,21.126,25.9771Zm1.7221,10.29,5.0289,4.31A1.7558,1.7558,0,0,0,29.019,41h3.962a1.7559,1.7559,0,0,0,1.1425-.4229l5.0279-4.3095A2.4287,2.4287,0,0,0,40,34.4224V31.0543l-9-3-9,3v3.3681A2.4264,2.4264,0,0,0,22.8481,36.2671ZM57,23.5A3.5,3.5,0,1,1,53.5,20,3.5042,3.5042,0,0,1,57,23.5Zm-2,0A1.5,1.5,0,1,0,53.5,25,1.5017,1.5017,0,0,0,55,23.5ZM36,23a1,1,0,1,0,1,1A1,1,0,0,0,36,23ZM26,25a1,1,0,1,0-1-1A1,1,0,0,0,26,25Zm8-3h4a1,1,0,0,0,0-2H34a1,1,0,0,0,0,2ZM26.8145,33.2012a35.5948,35.5948,0,0,0,4.1855.58,35.5948,35.5948,0,0,0,4.1855-.58,1,1,0,0,0-.371-1.9649A34.4725,34.4725,0,0,1,31,31.7812a34.4725,34.4725,0,0,1-3.8145-.5449,1,1,0,0,0-.371,1.9649Zm9.4448,2.7646a1,1,0,1,0-.5186-1.9316A30.4474,30.4474,0,0,1,31,35a30.4474,30.4474,0,0,1-4.7407-.9658,1,1,0,0,0-.5186,1.9316A32.33,32.33,0,0,0,31,37,32.33,32.33,0,0,0,36.2593,35.9658ZM44,53a1,1,0,0,0-1,1v7a1,1,0,0,0,2,0V54A1,1,0,0,0,44,53ZM18,53a1,1,0,0,0-1,1v7a1,1,0,0,0,2,0V54A1,1,0,0,0,18,53Z"/>
</g>
</svg>