<?xml version="1.0" ?>
<!-- Uploaded to: SVG Repo, www.svgrepo.com, Generator: SVG Repo Mixer Tools -->
<svg width="800px" height="800px" viewBox="0 0 64 64" xmlns="http://www.w3.org/2000/svg" xmlns:xlink="http://www.w3.org/1999/xlink">
<defs>
<style>.cls-1{fill:url(#linear-gradient);}</style>
<linearGradient gradientUnits="userSpaceOnUse" id="linear-gradient" x1="8.4961" x2="54.8243" y1="61.9102" y2="15.5821">
<stop offset="0" stop-color="#107eff"/>
<stop offset="1" stop-color="#8f16ff"/>
</linearGradient>
</defs>
<g id="man-mask12">
<path class="cls-1" d="M49.7681,45.9072,38,40.5456V38.0317l1.4531-1.2456A4.426,4.426,0,0,0,41,33.4224V28.7393a3.6965,3.6965,0,0,0,2.32-2.9126l.23-1.6079A3.647,3.647,0,0,0,41,20.1966V18h1a1.0005,1.0005,0,0,0,.5928-.1948c.7-.5152,4.1572-3.2031,3.5146-5.5479-.5215-1.9038-3.1455-2.166-4.0078-2.2524-.5677-.0571-1.1377-.0861-1.7079-.0968A8.3426,8.3426,0,0,0,32.7422,4H27.2578C22.7046,4,19,8.2466,19,13.4658v6.7308a3.6471,3.6471,0,0,0-2.55,4.0226l.23,1.6075A3.6965,3.6965,0,0,0,19,28.7393v4.6831a4.4242,4.4242,0,0,0,1.5469,3.3632L22,38.0314v2.5042L10.2163,45.8892a1,1,0,0,0-.5854.8691l-.63,15.2a1,1,0,0,0,.9575,1.0405l.042.001a1,1,0,0,0,.9985-.9585l.5391-13.0068c.4714.4142.953.8178,1.45,1.1992a1.0032,1.0032,0,0,0,.86.1743l9.07-2.354,1.0674.4609A14.9386,14.9386,0,0,0,26,49.2V62a1,1,0,0,0,2,0V49.6041a15.2519,15.2519,0,0,0,4-.0048V62a1,1,0,0,0,2,0V49.1956a14.964,14.964,0,0,0,1.9155-.6477l1.1607-.4937,9.0351,2.38a.9987.9987,0,0,0,.8623-.1724c.5052-.3861.995-.7945,1.4738-1.2143l.5536,12.9946A1,1,0,0,0,50,63l.043-.001a1,1,0,0,0,.9565-1.0415l-.6465-15.1826A1.0006,1.0006,0,0,0,49.7681,45.9072Zm-5.59-33.1216c.168.61-1.1465,2.1407-2.5156,3.2144H24.9185c3.9433-1.94,10.72-4.6328,16.9819-4.0049C43.5732,12.1626,44.12,12.5708,44.1782,12.7856ZM27.2578,6h5.4844a6.2286,6.2286,0,0,1,5.52,3.9615c-7.8154.55-15.2289,4.6572-17.2618,5.8669V13.4658C21,9.3491,23.8071,6,27.2578,6ZM18.6592,25.5435l-.23-1.607A1.6105,1.6105,0,0,1,19,22.4291V23a1,1,0,0,0,1.6.8l3.2285-2.4214A11.11,11.11,0,0,0,27.7573,22.97c1.7447.436,3.0044.2525,3.7447-.5454a2.2331,2.2331,0,0,0,.5307-1.0015c2.5879.78,4.0894.4361,4.9248-.0517L39.293,23.707A1,1,0,0,0,41,23v-.5709a1.61,1.61,0,0,1,.5708,1.5069l-.23,1.6075a1.6956,1.6956,0,0,1-1.4668,1.4336.9979.9979,0,0,0-.87.97l-8.6877-2.896a1.0014,1.0014,0,0,0-.6328,0l-8.6877,2.896a.9979.9979,0,0,0-.87-.97A1.6956,1.6956,0,0,1,18.6592,25.5435ZM21,33.4224V30.0543l9-3,9,3v3.3681a2.4287,2.4287,0,0,1-.8486,1.8452l-5.0279,4.31A1.7559,1.7559,0,0,1,31.981,40H28.019a1.7558,1.7558,0,0,1-1.142-.4224l-5.0289-4.31A2.4264,2.4264,0,0,1,21,33.4224Zm4.5757,7.6743A3.76,3.76,0,0,0,28.019,42h3.962a3.76,3.76,0,0,0,2.4438-.9038L36,39.746v2.5924l-.8672.3686a13.1909,13.1909,0,0,1-10.354-.0278L24,42.3428V39.7459Zm20.5664,7.2778-8.8872-2.3413a.9949.9949,0,0,0-.646.0464l-1.4761.6274a13.1979,13.1979,0,0,1-10.3535-.0278l-1.3828-.5972a.9953.9953,0,0,0-.648-.05l-8.9243,2.3164c-.4972-.3963-.976-.8154-1.4427-1.246L22,42.7327V43a1,1,0,0,0,.6035.918l1.3823.5971a15.21,15.21,0,0,0,11.93.0328l1.4756-.6275A1.0006,1.0006,0,0,0,38,43v-.2563l9.6012,4.3745C47.1292,47.5527,46.6451,47.9753,46.1421,48.3745ZM11.3676,16.5A1.1324,1.1324,0,1,1,12.5,17.6323,1.1324,1.1324,0,0,1,11.3676,16.5Zm46.7535,5.207a1,1,0,1,1-1.4141,1.4141L56,22.4141l-.707.707a1,1,0,1,1-1.4141-1.4141l.707-.707-.707-.707a1,1,0,1,1,1.4141-1.4141l.707.707.707-.707a1,1,0,1,1,1.4141,1.4141l-.707.707ZM50.5,33A3.5,3.5,0,1,0,54,36.5,3.5042,3.5042,0,0,0,50.5,33Zm0,5A1.5,1.5,0,1,1,52,36.5,1.5017,1.5017,0,0,1,50.5,38ZM34,25a1,1,0,1,1,1,1A1,1,0,0,1,34,25ZM24,25a1,1,0,1,1,1,1A1,1,0,0,1,24,25Zm1.0176,6.0332a.9965.9965,0,0,1,1.1679-.7969A34.4725,34.4725,0,0,0,30,30.7812a34.4725,34.4725,0,0,0,3.8145-.5449,1,1,0,0,1,.371,1.9649,35.5948,35.5948,0,0,1-4.1855.58,35.5948,35.5948,0,0,1-4.1855-.58A.9994.9994,0,0,1,25.0176,31.0332ZM30,36a32.33,32.33,0,0,1-5.2593-1.0342,1,1,0,0,1,.5186-1.9316A30.4474,30.4474,0,0,0,30,34a30.4474,30.4474,0,0,0,4.7407-.9658,1,1,0,1,1,.5186,1.9316A32.33,32.33,0,0,1,30,36Z"/>
</g>
</svg>