<?xml version="1.0" ?>
<!-- Uploaded to: SVG Repo, www.svgrepo.com, Generator: SVG Repo Mixer Tools -->
<svg width="800px" height="800px" viewBox="0 0 64 64" xmlns="http://www.w3.org/2000/svg" xmlns:xlink="http://www.w3.org/1999/xlink">
<defs>
<style>.cls-1{fill:url(#linear-gradient);}</style>
<linearGradient gradientUnits="userSpaceOnUse" id="linear-gradient" x1="8.4944" x2="51.5058" y1="60.9084" y2="17.8971">
<stop offset="0" stop-color="#107eff"/>
<stop offset="1" stop-color="#8f16ff"/>
</linearGradient>
</defs>
<g id="man-mask9">
<path class="cls-1" d="M46.7383,43.9941,44,43.178V14.1929A9.2035,9.2035,0,0,0,34.8066,5H25.1934A9.2035,9.2035,0,0,0,16,14.1929v28.94l-2.77.8364a5.2514,5.2514,0,0,0-3.7246,4.8052L9.001,60.9585a1,1,0,0,0,.958,1.0405l.042.001a1,1,0,0,0,.998-.9585l.5049-12.1836a3.2485,3.2485,0,0,1,2.3047-2.9731L16,45.223V47.5a2.5,2.5,0,0,0,5,0V43.7128l1-.302V47.5a2.5,2.5,0,0,0,5,0V40.8439A3.738,3.738,0,0,0,28.02,41h3.961A3.738,3.738,0,0,0,33,40.8439V47.5a2.5,2.5,0,0,0,5,0V43.4772l1,.2981V47.5a2.5,2.5,0,0,0,5,0V45.2651l2.167.646a3.2483,3.2483,0,0,1,2.3164,2.9727l.5176,12.1587A1,1,0,0,0,49.999,62l.044-.001a.9994.9994,0,0,0,.956-1.0415l-.5176-12.1587A5.25,5.25,0,0,0,46.7383,43.9941Zm-6.15-22.8261a1.6713,1.6713,0,0,1,.9824,1.7685l-.23,1.607a1.695,1.695,0,0,1-1.4668,1.4336.9983.9983,0,0,0-.87.97l-.45-.15A3.9491,3.9491,0,0,0,39,25a4.0042,4.0042,0,0,0-4-4c-.0582,0-.1122.0147-.17.0172-.0295-.0027-.0549-.0172-.0851-.0172H25.3408a.9456.9456,0,0,0-.1137.0229C25.1505,21.0186,25.0778,21,25,21a4.0042,4.0042,0,0,0-4,4,3.9491,3.9491,0,0,0,.4462,1.7972l-.45.15a.9983.9983,0,0,0-.87-.97,1.695,1.695,0,0,1-1.4668-1.4332L18.43,22.937a1.6725,1.6725,0,0,1,.9824-1.769A1,1,0,0,0,20,20.2568V19H40v1.2568A1,1,0,0,0,40.5879,21.168Zm-9.5173,3.1346-.7542-.2513a1.0014,1.0014,0,0,0-.6328,0l-.7542.2513A3.9469,3.9469,0,0,0,28.4437,23h3.1126A3.9461,3.9461,0,0,0,31.0706,24.3026ZM40.64,10a7.1936,7.1936,0,0,1,.6033,1H18.757a7.1936,7.1936,0,0,1,.6033-1Zm1.2529,3a7.1873,7.1873,0,0,1,.0976,1H18.01a7.1873,7.1873,0,0,1,.0976-1ZM42,16v1H18V16ZM34.8066,7a7.14,7.14,0,0,1,3.641,1H21.5524a7.14,7.14,0,0,1,3.641-1ZM19,47.5a.5.5,0,0,1-1,0V27.1464a3.7,3.7,0,0,0,1,.5929V47.5Zm2-5.8768V36.174l1,.8571v4.29ZM24.5,48a.5006.5006,0,0,1-.5-.5V38.7453l1,.8571V47.5A.5006.5006,0,0,1,24.5,48Zm3.52-9a1.7571,1.7571,0,0,1-1.1425-.4224l-5.0293-4.31A2.429,2.429,0,0,1,21,32.4224v-3.368l1.9362-.6454A3.958,3.958,0,0,0,25,29a4,4,0,0,0,3.7072-2.515L30,26.0542l1.2928.4307A4,4,0,0,0,35,29a3.958,3.958,0,0,0,2.0638-.591L39,29.0544v3.368a2.4308,2.4308,0,0,1-.8477,1.8452l-5.0293,4.31A1.7571,1.7571,0,0,1,31.9805,39Zm7.48,9a.5006.5006,0,0,1-.5-.5V39.6025l1-.857V47.5A.5006.5006,0,0,1,35.5,48ZM38,41.39V37.0317l1-.857v5.513ZM41.5,48a.5006.5006,0,0,1-.5-.5V27.7393a3.6978,3.6978,0,0,0,1-.5929V47.5A.5006.5006,0,0,1,41.5,48ZM51.6324,34.5A1.1324,1.1324,0,1,1,50.5,33.3676,1.1323,1.1323,0,0,1,51.6324,34.5ZM8.707,34.1211,8,33.4141l-.707.707A1,1,0,1,1,5.8789,32.707L6.5859,32l-.707-.707A1,1,0,0,1,7.293,29.8789l.707.707.707-.707a1,1,0,0,1,1.4141,1.4141L9.4141,32l.707.707A1,1,0,1,1,8.707,34.1211ZM55.5,44A3.5,3.5,0,1,0,59,47.5,3.5042,3.5042,0,0,0,55.5,44Zm0,5A1.5,1.5,0,1,1,57,47.5,1.5017,1.5017,0,0,1,55.5,49ZM18,56v5a1,1,0,0,1-2,0V56a1,1,0,0,1,2,0Zm26,0v5a1,1,0,0,1-2,0V56a1,1,0,0,1,2,0ZM25.0176,30.0332a.9989.9989,0,0,1,1.1679-.7969A34.5062,34.5062,0,0,0,30,29.7812a34.5062,34.5062,0,0,0,3.8145-.5449,1,1,0,0,1,.371,1.9649,35.61,35.61,0,0,1-4.1855.58,35.61,35.61,0,0,1-4.1855-.58A.999.999,0,0,1,25.0176,30.0332Zm10.2412,3.9326A32.3,32.3,0,0,1,30,35a32.3,32.3,0,0,1-5.2588-1.0342,1,1,0,1,1,.5176-1.9316A30.4727,30.4727,0,0,0,30,33a30.4727,30.4727,0,0,0,4.7412-.9658,1,1,0,1,1,.5176,1.9316ZM33.9482,61.3164a.9979.9979,0,0,1-1.2646.6323L30,61.0542l-2.6836.8945a1,1,0,0,1-.6328-1.8974L29,59.2791V53a1,1,0,0,1,2,0v6.2791l2.3164.7722A1,1,0,0,1,33.9482,61.3164Z"/>
</g>
</svg>