<?xml version="1.0" ?>
<!-- Uploaded to: SVG Repo, www.svgrepo.com, Generator: SVG Repo Mixer Tools -->
<svg width="800px" height="800px" viewBox="0 0 64 64" xmlns="http://www.w3.org/2000/svg" xmlns:xlink="http://www.w3.org/1999/xlink">
<defs>
<style>.cls-1{fill:url(#linear-gradient);}</style>
<linearGradient gradientUnits="userSpaceOnUse" id="linear-gradient" x1="8.4961" x2="53.3243" y1="61.9104" y2="17.0822">
<stop offset="0" stop-color="#107eff"/>
<stop offset="1" stop-color="#8f16ff"/>
</linearGradient>
</defs>
<g id="man-mask7">
<path class="cls-1" d="M8.5,19.6323A1.1324,1.1324,0,1,1,9.6324,18.5,1.1323,1.1323,0,0,1,8.5,19.6323ZM52.4277,51.8911l1.5577,8.937a1.0007,1.0007,0,0,1-.8135,1.1573A1.0574,1.0574,0,0,1,52.999,62a1,1,0,0,1-.9844-.8281l-1.5576-8.937a9.1889,9.1889,0,0,0-6.4638-7.27l-6.6676-1.9869A7.0087,7.0087,0,0,1,32,46.92V61a1,1,0,0,1-2,0V46.92a7.01,7.01,0,0,1-5.3562-4.0057l-6.6721,2.0148a9.1943,9.1943,0,0,0-6.4346,7.2715L9.9854,61.17A1,1,0,0,1,9.001,62a1.0455,1.0455,0,0,1-.1719-.0146A1,1,0,0,1,8.0146,60.83l1.5518-8.97a11.1846,11.1846,0,0,1,7.8272-8.8457l6.6856-2.019A6.9783,6.9783,0,0,1,24,40V37.8882l-2.4531-2.1026A4.4233,4.4233,0,0,1,20,32.4224V27.7393a3.6988,3.6988,0,0,1-2.3213-2.9126l-.2295-1.6079A3.6756,3.6756,0,0,1,18,20.7384V12.3667C18,8.3047,21.876,5,26.64,5H35.36C40.124,5,44,8.3047,44,12.3667v8.3717a3.6756,3.6756,0,0,1,.5508,2.48l-.23,1.6074A3.6987,3.6987,0,0,1,42,27.7393v4.6831a4.4252,4.4252,0,0,1-1.5479,3.3637L38,37.888V40a6.9931,6.9931,0,0,1-.09,1.0652l6.6533,1.9827A11.1783,11.1783,0,0,1,52.4277,51.8911Zm-10.23-30.269A1.7,1.7,0,0,0,41,21.0171v3.2505a2.7307,2.7307,0,0,1-1.5988,2.4787l.6029.201a.9983.9983,0,0,1,.87-.97,1.695,1.695,0,0,0,1.4668-1.4336l.23-1.607A1.66,1.66,0,0,0,42.1982,21.6221ZM24,18V16.4141l-1,1V20h6a.9934.9934,0,0,1,.7153.3049,2.8782,2.8782,0,0,1,2.5717-.0034A.9938.9938,0,0,1,33,20h5.834V17.6655A2.669,2.669,0,0,0,36.168,15h-.9756l-9.8213,3.9287A1,1,0,0,1,24,18Zm12,4H34v2.2676A.733.733,0,0,0,34.7324,25h3.5352A.733.733,0,0,0,39,24.2676V22ZM23,24.2676A.733.733,0,0,0,23.7324,25h3.5352A.733.733,0,0,0,28,24.2676V22H23Zm6.9988.0119.6848-.2282a1.0014,1.0014,0,0,1,.6328,0l.6848.2282L32,24.2676V23a1,1,0,0,0-1.9971-.0781l-.0029.01v1.3355ZM21.126,25.9771a.9983.9983,0,0,1,.87.97l.6029-.201A2.7307,2.7307,0,0,1,21,24.2676V21.0142a1.689,1.689,0,0,0-1.1982.6079,1.66,1.66,0,0,0-.3721,1.3144l.2295,1.6074A1.695,1.695,0,0,0,21.126,25.9771Zm1.7217,8.29,5.0293,4.31A1.7571,1.7571,0,0,0,29.02,39h3.961a1.7571,1.7571,0,0,0,1.1425-.4224l5.0284-4.31A2.4287,2.4287,0,0,0,40,32.4224V29.0543l-9-3-9,3v3.3681A2.429,2.429,0,0,0,22.8477,34.2671ZM36,40v-.3977l-.5762.4939A3.7555,3.7555,0,0,1,32.9805,41H29.02a3.7555,3.7555,0,0,1-2.4433-.9038L26,39.6024V40a5,5,0,0,0,10,0Zm8,13a1,1,0,0,0-1,1v7a1,1,0,0,0,2,0V54A1,1,0,0,0,44,53ZM18,53a1,1,0,0,0-1,1v7a1,1,0,0,0,2,0V54A1,1,0,0,0,18,53ZM50.8789,23.1211a1,1,0,0,0,1.4141,0l.707-.707.707.707a1,1,0,1,0,1.4141-1.4141L54.4141,21l.707-.707a1,1,0,1,0-1.4141-1.4141l-.707.707-.707-.707a1,1,0,1,0-1.4141,1.4141l.707.707-.707.707A1,1,0,0,0,50.8789,23.1211ZM60,35.5A3.5,3.5,0,1,1,56.5,32,3.5042,3.5042,0,0,1,60,35.5Zm-2,0A1.5,1.5,0,1,0,56.5,37,1.5017,1.5017,0,0,0,58,35.5ZM35,23a1,1,0,1,0,1-1A1,1,0,0,0,35,23ZM25,23a1,1,0,1,0,1-1A1,1,0,0,0,25,23Zm1.8145,8.2012a35.61,35.61,0,0,0,4.1855.58,35.61,35.61,0,0,0,4.1855-.58,1,1,0,0,0-.371-1.9649A34.5062,34.5062,0,0,1,31,29.7812a34.5062,34.5062,0,0,1-3.8145-.5449,1,1,0,0,0-.371,1.9649Zm9.4443,2.7646a1,1,0,1,0-.5176-1.9316A30.4727,30.4727,0,0,1,31,33a30.4727,30.4727,0,0,1-4.7412-.9658,1,1,0,1,0-.5176,1.9316A32.3,32.3,0,0,0,31,35,32.3,32.3,0,0,0,36.2588,33.9658ZM34.5,49.3676A1.1324,1.1324,0,1,0,35.6324,50.5,1.1324,1.1324,0,0,0,34.5,49.3676Zm0,4A1.1324,1.1324,0,1,0,35.6324,54.5,1.1324,1.1324,0,0,0,34.5,53.3676Zm0,4A1.1324,1.1324,0,1,0,35.6324,58.5,1.1324,1.1324,0,0,0,34.5,57.3676Z"/>
</g>
</svg>