<?xml version="1.0" ?>
<!-- Uploaded to: SVG Repo, www.svgrepo.com, Generator: SVG Repo Mixer Tools -->
<svg width="800px" height="800px" viewBox="0 0 64 64" xmlns="http://www.w3.org/2000/svg" xmlns:xlink="http://www.w3.org/1999/xlink">
<defs>
<style>.cls-1{fill:url(#linear-gradient);}</style>
<linearGradient gradientUnits="userSpaceOnUse" id="linear-gradient" x1="6.2459" x2="52.1722" y1="63.6606" y2="17.7343">
<stop offset="0" stop-color="#107eff"/>
<stop offset="1" stop-color="#8f16ff"/>
</linearGradient>
</defs>
<g id="man-mask19">
<path class="cls-1" d="M9.3676,11.5A1.1324,1.1324,0,1,1,10.5,12.6323,1.1324,1.1324,0,0,1,9.3676,11.5Zm46.899,51.4639a.9983.9983,0,0,1-1.23-.6973L52.2021,52.021a4.1745,4.1745,0,0,0-3.0449-2.9453L43.042,47.6025a8.5011,8.5011,0,0,1-5.77-6.09l-1.8477,1.5833A3.7555,3.7555,0,0,1,32.9805,44H29.02a3.7555,3.7555,0,0,1-2.4433-.9038l-1.8468-1.5829a8.4984,8.4984,0,0,1-5.7235,6.0673l-6.17,1.48a4.1736,4.1736,0,0,0-3.0527,2.9522L6.9639,62.2651a1,1,0,1,1-1.9278-.53L7.8555,51.4824A6.1728,6.1728,0,0,1,12.37,47.1152l6.1084-1.4633a6.475,6.475,0,0,0,4.4858-5.6514l-1.4174-1.2149A4.4233,4.4233,0,0,1,20,35.4224V30.7345a3.6915,3.6915,0,0,1-2.3213-2.9074l-.2295-1.6083a3.6336,3.6336,0,0,1,1.333-3.3795C17.0533,18.9844,17,9.1773,17,8a1,1,0,0,1,1-1h3.6924L21.22,5.2622a.9989.9989,0,0,1,.5713-1.1811c4.2285-1.8125,10.8955-.5557,15.7442.8164A10.08,10.08,0,0,1,44.83,15.3022a30.1327,30.1327,0,0,1-1.68,7.481,3.6547,3.6547,0,0,1,1.4011,3.4356l-.23,1.6074A3.697,3.697,0,0,1,42,30.7362v4.6862a4.4265,4.4265,0,0,1-1.5459,3.3632L39.0392,39.998a6.469,6.469,0,0,0,4.5321,5.6768l6.0547,1.4565A6.1759,6.1759,0,0,1,54.13,51.4878l2.834,10.2456A1,1,0,0,1,56.2666,62.9639ZM22,30H40V24.1051l-8.9.89a1.0147,1.0147,0,0,1-.1992,0l-8.9-.89Zm9-7.0049,8.989-.8991a5.0627,5.0627,0,0,0-.8786-2.8167l-.001,0a2.5836,2.5836,0,0,0-2.0342-1.2778l-5.9111.9853a.9791.9791,0,0,1-.4385-.0249L23.9,17.0117c-.4268.0718-1.9.57-1.9,3.9883v1.0949Zm11.1992,1.627A1.6826,1.6826,0,0,0,42,24.4288V28.31a1.6545,1.6545,0,0,0,.3408-.7668l.23-1.6065A1.6629,1.6629,0,0,0,42.1992,24.6221ZM19.0088,9a64.3547,64.3547,0,0,0,1.0237,11.2357C20.3623,15.0757,23.9618,15,24,15a1.0009,1.0009,0,0,1,.2744.0386l6.7832,1.938,5.7783-.9629A.9684.9684,0,0,1,37,16a4.5315,4.5315,0,0,1,3.7422,2.1235,6.7686,6.7686,0,0,1,1.042,2.3932,26.303,26.303,0,0,0,1.0517-5.3639,8.0719,8.0719,0,0,0-5.8457-8.33c-4.22-1.1958-9.8623-2.3145-13.6-1.1963l.5742,2.1118A.9991.9991,0,0,1,23,9ZM20,28.3105V24.4288a1.6826,1.6826,0,0,0-.1992.1933,1.6629,1.6629,0,0,0-.3711,1.3144l.2295,1.6074A1.65,1.65,0,0,0,20,28.3105Zm19.1523,8.9571A2.4308,2.4308,0,0,0,40,35.4224V32H22v3.4224a2.429,2.429,0,0,0,.8477,1.8447l5.0293,4.31A1.7571,1.7571,0,0,0,29.02,42h3.961a1.7571,1.7571,0,0,0,1.1425-.4224Zm12.7266-3.1465a1,1,0,0,0,1.4141,0l.707-.707.707.707a1,1,0,1,0,1.4141-1.4141L55.4141,32l.707-.707a1,1,0,1,0-1.4141-1.4141l-.707.707-.707-.707a1,1,0,1,0-1.4141,1.4141l.707.707-.707.707A1,1,0,0,0,51.8789,34.1211ZM8,35.5A3.5,3.5,0,1,1,11.5,39,3.5042,3.5042,0,0,1,8,35.5Zm2,0A1.5,1.5,0,1,0,11.5,34,1.5017,1.5017,0,0,0,10,35.5ZM27,26a1,1,0,1,0,1,1A1,1,0,0,0,27,26Zm8,0a1,1,0,1,0,1,1A1,1,0,0,0,35,26ZM17,57a1,1,0,0,0-1,1v4a1,1,0,0,0,2,0V58A1,1,0,0,0,17,57Zm28,0a1,1,0,0,0-1,1v4a1,1,0,0,0,2,0V58A1,1,0,0,0,45,57ZM26.8145,35.2012a35.61,35.61,0,0,0,4.1855.58,35.61,35.61,0,0,0,4.1855-.58,1,1,0,0,0-.371-1.9649A34.5062,34.5062,0,0,1,31,33.7812a34.5062,34.5062,0,0,1-3.8145-.5449,1,1,0,0,0-.371,1.9649Zm8.9267.833A30.4727,30.4727,0,0,1,31,37a30.4727,30.4727,0,0,1-4.7412-.9658,1,1,0,1,0-.5176,1.9316A32.3,32.3,0,0,0,31,39a32.3,32.3,0,0,0,5.2588-1.0342,1,1,0,1,0-.5176-1.9316Zm2.9053,15.1714-.8819,8.2763a1,1,0,0,1-.7812.8711,28.0557,28.0557,0,0,1-13.0469-.2549.999.999,0,0,1-.7422-.8632l-.8486-8.0889a2.7115,2.7115,0,0,1,.6231-2.1729,2.75,2.75,0,0,1,2.1-.9731H35.9307a2.753,2.753,0,0,1,2.7158,3.2056ZM35,53a1,1,0,0,0-1-1H27a1,1,0,0,0-.5146,1.8574l5,3a1,1,0,0,0,1.0292-1.7148L30.61,54H34A1,1,0,0,0,35,53Z"/>
</g>
</svg>