<?xml version="1.0" ?>
<!-- Uploaded to: SVG Repo, www.svgrepo.com, Generator: SVG Repo Mixer Tools -->
<svg width="800px" height="800px" viewBox="0 0 64 64" xmlns="http://www.w3.org/2000/svg" xmlns:xlink="http://www.w3.org/1999/xlink">
<defs>
<style>.cls-1{fill:url(#linear-gradient);}</style>
<linearGradient gradientUnits="userSpaceOnUse" id="linear-gradient" x1="8.8062" x2="59.9869" y1="61.2203" y2="10.0396">
<stop offset="0" stop-color="#107eff"/>
<stop offset="1" stop-color="#8f16ff"/>
</linearGradient>
</defs>
<g id="man-mask3">
<path class="cls-1" d="M45.3462,43.5791,37,41.0919v-3.203l2.4531-2.1028A4.426,4.426,0,0,0,41,32.4224V27.7393a3.6965,3.6965,0,0,0,2.32-2.9126l.23-1.6079a3.6865,3.6865,0,0,0-.7951-2.8475A4.4851,4.4851,0,0,0,45,16.5v-2A4.505,4.505,0,0,0,40.5,10H39.1045a8.2443,8.2443,0,0,0-6.3623-3H27.2578a8.2443,8.2443,0,0,0-6.3623,3H19.5A4.505,4.505,0,0,0,15,14.5v2a4.4851,4.4851,0,0,0,2.2448,3.8713,3.6871,3.6871,0,0,0-.7951,2.8479l.23,1.6075A3.6965,3.6965,0,0,0,19,27.7393v4.6831a4.4242,4.4242,0,0,0,1.5469,3.3632L23,37.8886V41.02l-8.3823,2.5313a7.291,7.291,0,0,0-5.1719,6.6719L9.001,60.9585a1,1,0,0,0,.9575,1.0405L10.001,62a1,1,0,0,0,.998-.9585l.4448-10.7358a5.289,5.289,0,0,1,3.752-4.84L18,44.619V61a1,1,0,0,0,2,0V44.015l3-.9059V61a1,1,0,0,0,2,0V49.01a4.8865,4.8865,0,0,0,2.9331.99h4.1338A4.8865,4.8865,0,0,0,35,49.01V61a1,1,0,0,0,2,0V43.1791l3,.8941V61a1,1,0,0,0,2,0V44.6692l2.7749.8269a5.2872,5.2872,0,0,1,3.77,4.8393l.4556,10.7071A1,1,0,0,0,50,62l.043-.001a1,1,0,0,0,.9565-1.0415l-.4555-10.707A7.2888,7.2888,0,0,0,45.3462,43.5791ZM18.6592,24.5435l-.23-1.607A1.6105,1.6105,0,0,1,19,21.4291V22a1,1,0,0,0,2,0V15.2578A6.2647,6.2647,0,0,1,27.2578,9h5.4844A6.2647,6.2647,0,0,1,39,15.2578V22a1,1,0,0,0,2,0v-.5709a1.61,1.61,0,0,1,.5708,1.5069l-.23,1.6075a1.6956,1.6956,0,0,1-1.4668,1.4336,1,1,0,0,0-.874.9921v1.9767l-6-2V26a1,1,0,0,0-2,0v1a1,1,0,0,1-2,0V26a1,1,0,0,0-2,0v.9458l-6,2V26.9692a1,1,0,0,0-.874-.9921A1.6956,1.6956,0,0,1,18.6592,24.5435ZM21,32.4224V31.0543l6.647-2.2157a2.9643,2.9643,0,0,0,4.706,0L39,31.0543v1.3681a2.4287,2.4287,0,0,1-.8486,1.8452l-5.0279,4.31A1.7559,1.7559,0,0,1,31.981,39H28.019a1.7558,1.7558,0,0,1-1.142-.4224l-5.0289-4.31A2.4264,2.4264,0,0,1,21,32.4224ZM32.0669,48H27.9331A2.9366,2.9366,0,0,1,25,45.0669V39.6031l.5757.4936A3.76,3.76,0,0,0,28.019,41h3.962a3.76,3.76,0,0,0,2.4438-.9038L35,39.6031v5.4638A2.9366,2.9366,0,0,1,32.0669,48ZM52.6324,34.5A1.1324,1.1324,0,1,1,51.5,33.3676,1.1323,1.1323,0,0,1,52.6324,34.5Zm-19,19A1.1324,1.1324,0,1,1,32.5,52.3676,1.1323,1.1323,0,0,1,33.6324,53.5Zm0,4A1.1324,1.1324,0,1,1,32.5,56.3676,1.1323,1.1323,0,0,1,33.6324,57.5ZM10.8789,34.707l.707-.707-.707-.707a1,1,0,1,1,1.4141-1.4141l.707.707.707-.707a1,1,0,1,1,1.4141,1.4141l-.707.707.707.707a1,1,0,1,1-1.4141,1.4141L13,35.4141l-.707.707a1,1,0,1,1-1.4141-1.4141ZM53.5,5A3.5,3.5,0,1,0,57,8.5,3.5042,3.5042,0,0,0,53.5,5Zm0,5A1.5,1.5,0,1,1,55,8.5,1.5017,1.5017,0,0,1,53.5,10ZM36,23a1,1,0,1,1-1-1A1,1,0,0,1,36,23ZM24,23a1,1,0,1,1,1,1A1,1,0,0,1,24,23Zm0-3a1,1,0,0,1,1-1h3a1,1,0,0,1,0,2H25A1,1,0,0,1,24,20Zm7,0a1,1,0,0,1,1-1h3a1,1,0,0,1,0,2H32A1,1,0,0,1,31,20ZM25.0176,32.0332a.9945.9945,0,0,1,1.1679-.7969A34.4725,34.4725,0,0,0,30,31.7812a34.4725,34.4725,0,0,0,3.8145-.5449,1,1,0,0,1,.371,1.9649,35.5948,35.5948,0,0,1-4.1855.58,35.5948,35.5948,0,0,1-4.1855-.58A.9994.9994,0,0,1,25.0176,32.0332ZM30,37a32.33,32.33,0,0,1-5.2593-1.0342,1,1,0,0,1,.5186-1.9316A30.4474,30.4474,0,0,0,30,35a30.4474,30.4474,0,0,0,4.7407-.9658,1,1,0,1,1,.5186,1.9316A32.33,32.33,0,0,1,30,37Z"/>
</g>
</svg>