<?xml version="1.0" ?>
<!-- Uploaded to: SVG Repo, www.svgrepo.com, Generator: SVG Repo Mixer Tools -->
<svg width="800px" height="800px" viewBox="0 0 64 64" xmlns="http://www.w3.org/2000/svg" xmlns:xlink="http://www.w3.org/1999/xlink">
<defs>
<style>.cls-1{fill:url(#linear-gradient);}</style>
<linearGradient gradientUnits="userSpaceOnUse" id="linear-gradient" x1="8.246" x2="52.7993" y1="62.6607" y2="18.1074">
<stop offset="0" stop-color="#107eff"/>
<stop offset="1" stop-color="#8f16ff"/>
</linearGradient>
</defs>
<g id="man-mask20">
<path class="cls-1" d="M15.3677,8.5A1.1323,1.1323,0,1,1,16.5,9.6323,1.1323,1.1323,0,0,1,15.3677,8.5ZM59,35.5A3.5,3.5,0,1,1,55.5,32,3.5042,3.5042,0,0,1,59,35.5Zm-2,0A1.5,1.5,0,1,0,55.5,37,1.5017,1.5017,0,0,0,57,35.5ZM19,56a1,1,0,0,0-1,1v4a1,1,0,0,0,2,0V57A1,1,0,0,0,19,56Zm26,0a1,1,0,0,0-1,1v4a1,1,0,0,0,2,0V57A1,1,0,0,0,45,56ZM8.8789,37.1211a1,1,0,0,0,1.4141,0l.707-.707.707.707a1,1,0,1,0,1.4141-1.4141L12.4141,35l.707-.707a1,1,0,1,0-1.4141-1.4141l-.707.707-.707-.707A1,1,0,1,0,8.8789,34.293l.707.707-.707.707A1,1,0,0,0,8.8789,37.1211Zm18.9356-5.92a35.61,35.61,0,0,0,4.1855.58,35.61,35.61,0,0,0,4.1855-.58,1,1,0,0,0-.371-1.9649A34.5062,34.5062,0,0,1,32,29.7812a34.5062,34.5062,0,0,1-3.8145-.5449,1,1,0,0,0-.371,1.9649Zm-1.0733,2.7646A32.3,32.3,0,0,0,32,35a32.3,32.3,0,0,0,5.2588-1.0342,1,1,0,1,0-.5176-1.9316A30.4727,30.4727,0,0,1,32,33a30.4727,30.4727,0,0,1-4.7412-.9658,1,1,0,1,0-.5176,1.9316ZM28,21a1,1,0,1,0,1,1A1,1,0,0,0,28,21ZM56.332,61.9434a.9989.9989,0,0,1-1.2754-.6109L50.5439,48.53l-7.748-3.8971A7.0366,7.0366,0,0,1,36,50H28a7.0131,7.0131,0,0,1-6.8181-5.4414l-7.74,3.95L8.9434,61.3311a1,1,0,1,1-1.8868-.6622l4.63-13.2a.9983.9983,0,0,1,.4893-.56L23,41.3857V36.174l-.4531-.3884A4.4233,4.4233,0,0,1,21,32.4224V27.7393a3.6988,3.6988,0,0,1-2.3213-2.9126l-.2295-1.6079a3.6865,3.6865,0,0,1,2.4932-4.02c-.0235-.7783-.0127-1.9487.0019-3.7363.0209-2.4392,1.7465-6.3772,4.4209-7.2717C29.32,2.996,32.5544,4.0935,37.8574,5.9155c.6143.2115,1.2656.4351,1.959.6636,8.0361,2.6514,8.957,14.8355,8.9922,15.353A1.0011,1.0011,0,0,1,47.8105,23H46.2949c-.0459.72-.1387,1.8921-.3222,3.7178-.2525,2.5-1.6791,3.6767-2.9727,3.9669v1.7377a4.4252,4.4252,0,0,1-1.5479,3.3637L41,36.1737v5.317l10.8027,5.4331a1,1,0,0,1,.4942.5611l4.6465,13.1826A1,1,0,0,1,56.332,61.9434ZM35.4473,18.1055c-2.3438-1.1719-2.6836-2.271-2.5352-2.6953a1,1,0,0,0-1.8066-.8575,2.6935,2.6935,0,0,0-.0537,2.0137c.4179,1.2559,1.5966,2.3755,3.5009,3.3281,2.7774,1.3887,3.376,2.1787,3.4746,2.3369A1,1,0,0,0,40,22C40,20.9263,38.4678,19.6162,35.4473,18.1055ZM29.1064,9.4238a1.01,1.01,0,0,0,1.3233.4795c.0625-.0288,1.5947-.6845,4.0156.9287a1,1,0,1,0,1.1094-1.664c-3.4434-2.2954-5.8985-1.1138-6.002-1.0625A.9909.9909,0,0,0,29.1064,9.4238Zm2.5772,14.6275a1.0014,1.0014,0,0,1,.6328,0l3.8257,1.2752c-1.2916-1.0709-2.9043-2.2387-4.8687-3.5872a9.9569,9.9569,0,0,1-1.9489-1.8048A.9809.9809,0,0,1,29,20H26a1,1,0,0,1,0-2h1.9626a25.0658,25.0658,0,0,1-2.7175-7.49,7.4279,7.4279,0,0,0-2.3008,4.97c-.0263,3.1108,0,4.0024.0166,4.2563a1.0007,1.0007,0,0,1-.958,1.2769,1.7093,1.7093,0,0,0-1.2021.6089,1.6629,1.6629,0,0,0-.3711,1.3144l.2295,1.6074a1.695,1.695,0,0,0,1.4668,1.4332.9982.9982,0,0,1,.87.97ZM23,32.4224a2.429,2.429,0,0,0,.8477,1.8447l5.0293,4.31A1.7571,1.7571,0,0,0,30.02,39h3.961a1.7571,1.7571,0,0,0,1.1425-.4224l5.0284-4.31A2.4287,2.4287,0,0,0,41,32.4224V30.4872a3.4548,3.4548,0,0,1-1.66-1.61c-.0787-.1561-.1857-.314-.2839-.4713L32,26.0542l-9,3ZM40.9229,43.6906l-1.3721-.69A1,1,0,0,1,39,42.1069V37.888l-2.5762,2.2082A3.7555,3.7555,0,0,1,33.9805,41H30.02a3.7555,3.7555,0,0,1-2.4433-.9038L25,37.8882v4.11a1,1,0,0,1-.5459.8907l-1.3923.7105A4.9926,4.9926,0,0,0,28,48h8A5.0077,5.0077,0,0,0,40.9229,43.6906Z"/>
</g>
</svg>