<?xml version="1.0" ?>
<!-- Uploaded to: SVG Repo, www.svgrepo.com, Generator: SVG Repo Mixer Tools -->
<svg width="800px" height="800px" viewBox="0 0 64 64" xmlns="http://www.w3.org/2000/svg" xmlns:xlink="http://www.w3.org/1999/xlink">
<defs>
<style>.cls-1{fill:url(#linear-gradient);}</style>
<linearGradient gradientUnits="userSpaceOnUse" id="linear-gradient" x1="7.4008" x2="55.2291" y1="62.8151" y2="14.9869">
<stop offset="0" stop-color="#107eff"/>
<stop offset="1" stop-color="#8f16ff"/>
</linearGradient>
</defs>
<g id="man-mask6">
<path class="cls-1" d="M49.6191,45.8535,37,42.3735V38.8886l2.4541-2.103A4.4265,4.4265,0,0,0,41,33.4224V27.7393a3.6987,3.6987,0,0,0,2.3213-2.9131l.23-1.6074a3.6764,3.6764,0,0,0-.6294-2.598C43.9849,15.9714,44,8.33,44,8a1,1,0,0,0-.7578-.97l-2.79-.6978.4424-.8847a.9987.9987,0,0,0-.5009-1.3662C33.0947.95,18.562,6.9214,17.9478,7.1768a1,1,0,0,0-.6031.7622c-.5539,3.3943.4749,9.2.9483,11.5654A3.6122,3.6122,0,0,0,16.45,23.2192l.23,1.6075A3.6965,3.6965,0,0,0,19,27.7393v5.6831a4.4242,4.4242,0,0,0,1.5469,3.3632L23,38.8886v3.4166L10.3608,45.8369a1,1,0,0,0-.7163.7925l-2.63,15.2a1,1,0,0,0,.815,1.1558A1.03,1.03,0,0,0,8.001,63a1,1,0,0,0,.9844-.83l2.5219-14.5776L24.269,44.0269A1,1,0,0,0,25,43.064V40.6031l.5757.4936A3.76,3.76,0,0,0,28.019,42h3.9615a3.7555,3.7555,0,0,0,2.4433-.9038L35,40.6025v2.5328a1,1,0,0,0,.7344.9638l12.7431,3.5142,2.5371,14.5586A1,1,0,0,0,51.999,63a1.0574,1.0574,0,0,0,.1729-.0146,1.0007,1.0007,0,0,0,.8135-1.1573L50.3389,46.6455A1,1,0,0,0,49.6191,45.8535Zm-30.96-21.31-.23-1.607A1.6105,1.6105,0,0,1,19,21.4291V22a1,1,0,0,0,2,0V18c0-3.4185,1.4741-3.9165,1.9009-3.9883l6.8247,1.95a.9728.9728,0,0,0,.4385.0249l5.9111-.9853A2.586,2.586,0,0,1,38.11,16.2793,5.1029,5.1029,0,0,1,39,19.2544V22a1,1,0,0,0,2,0v-.5707a1.6122,1.6122,0,0,1,.57,1.5072l-.23,1.607a1.695,1.695,0,0,1-1.4668,1.4336,1.0006,1.0006,0,0,0-.874.9921v.9767l-8.6836-2.8946a1.0014,1.0014,0,0,0-.6328,0L21,27.9459v-.9767a1,1,0,0,0-.874-.9921A1.6956,1.6956,0,0,1,18.6592,24.5435ZM33.123,39.5776A1.7571,1.7571,0,0,1,31.9805,40H28.019a1.7558,1.7558,0,0,1-1.142-.4224l-5.0289-4.31A2.4264,2.4264,0,0,1,21,33.4224V30.0543l9-3,9,3v3.3681a2.4308,2.4308,0,0,1-.8477,1.8452ZM7.5,24.6323A1.1324,1.1324,0,1,1,8.6324,23.5,1.1323,1.1323,0,0,1,7.5,24.6323ZM56.1211,18.707a1,1,0,1,1-1.4141,1.4141L54,19.4141l-.707.707a1,1,0,1,1-1.4141-1.4141l.707-.707-.707-.707a1,1,0,1,1,1.4141-1.4141l.707.707.707-.707a1,1,0,1,1,1.4141,1.4141l-.707.707ZM51.5,31A3.5,3.5,0,1,0,55,34.5,3.5042,3.5042,0,0,0,51.5,31Zm0,5A1.5,1.5,0,1,1,53,34.5,1.5017,1.5017,0,0,1,51.5,36ZM23.0513,21.3164a1,1,0,0,1,.6323-1.2651l3-1a1,1,0,1,1,.6328,1.8974l-3,1a.9985.9985,0,0,1-1.2651-.6323Zm8-1.6328a.9973.9973,0,0,1,1.2646-.6323l3,1a1,1,0,1,1-.6328,1.8974l-3-1A1,1,0,0,1,31.0518,19.6836ZM27,24a1,1,0,1,1-1-1A1,1,0,0,1,27,24Zm8,0a1,1,0,1,1-1-1A1,1,0,0,1,35,24ZM29,45a1,1,0,1,1,1,1A1,1,0,0,1,29,45Zm1,5a1,1,0,1,1,1-1A1,1,0,0,1,30,50ZM25.0176,31.0332a.9955.9955,0,0,1,1.1679-.7969A34.4556,34.4556,0,0,0,30,30.7812a34.5062,34.5062,0,0,0,3.8145-.5449,1,1,0,0,1,.371,1.9649,35.61,35.61,0,0,1-4.1855.58,35.5948,35.5948,0,0,1-4.1855-.58A.9994.9994,0,0,1,25.0176,31.0332Zm10.9482,2.7075a.9991.9991,0,0,1-.707,1.2251A32.3,32.3,0,0,1,30,36a32.33,32.33,0,0,1-5.2593-1.0342,1,1,0,0,1,.5186-1.9316A30.4474,30.4474,0,0,0,30,34a30.4727,30.4727,0,0,0,4.7412-.9658A1.0026,1.0026,0,0,1,35.9658,33.7407ZM44,55v7a1,1,0,0,1-2,0V55a1,1,0,0,1,2,0ZM18,55v7a1,1,0,0,1-2,0V55a1,1,0,0,1,2,0Zm22,2a1,1,0,0,1-1,1H31a1,1,0,0,1,0-2h8A1,1,0,0,1,40,57Z"/>
</g>
</svg>