<?xml version="1.0" ?>
<!-- Uploaded to: SVG Repo, www.svgrepo.com, Generator: SVG Repo Mixer Tools -->
<svg width="800px" height="800px" viewBox="0 0 64 64" xmlns="http://www.w3.org/2000/svg" xmlns:xlink="http://www.w3.org/1999/xlink">
<defs>
<style>.cls-1{fill:url(#linear-gradient);}</style>
<linearGradient gradientUnits="userSpaceOnUse" id="linear-gradient" x1="7.4961" x2="53.3243" y1="57.9102" y2="12.0821">
<stop offset="0" stop-color="#107eff"/>
<stop offset="1" stop-color="#8f16ff"/>
</linearGradient>
</defs>
<g id="man-mask13">
<path class="cls-1" d="M10.3676,10.5A1.1324,1.1324,0,1,1,11.5,11.6323,1.1324,1.1324,0,0,1,10.3676,10.5ZM56.4141,18l.707-.707a1,1,0,1,0-1.4141-1.4141l-.707.707-.707-.707a1,1,0,1,0-1.4141,1.4141l.707.707-.707.707a1,1,0,1,0,1.4141,1.4141l.707-.707.707.707a1,1,0,1,0,1.4141-1.4141Zm-5.8,31.9136.3847,9.0439a1,1,0,0,1-.9565,1.0415L49.999,60a1,1,0,0,1-.998-.9575l-.3848-9.044a10.02,10.02,0,0,0-5.1216-8.2851l-4.1144-2.28a15.69,15.69,0,0,1-4.3421,5.7093l-4.4839,3.6343a1,1,0,0,1-1.2651-.0049l-4.4082-3.6275a15.7433,15.7433,0,0,1-4.3252-5.7791l-4.1119,2.3123a9.8936,9.8936,0,0,0-5.0678,8.2666l-.377,9.0972A1,1,0,0,1,10.0005,60l-.042-.001a1,1,0,0,1-.9575-1.0405l.3769-9.0972a11.88,11.88,0,0,1,6.0855-9.9267l4.3838-2.4654a18.38,18.38,0,0,1-.8-4.6148C19.0326,32.71,19,32.1141,19,31.958V25.7393a3.6965,3.6965,0,0,1-2.32-2.9126l-.23-1.6075A3.6858,3.6858,0,0,1,19,17.18V13.2578A8.2674,8.2674,0,0,1,27.2578,5h5.4844A8.2674,8.2674,0,0,1,41,13.2578V17.18a3.6857,3.6857,0,0,1,2.55,4.0386l-.23,1.6079A3.6965,3.6965,0,0,1,41,25.7393v6.15c0,.1793-.0352.8678-.0544,1.0351a18.3734,18.3734,0,0,1-.8343,4.6277l4.3531,2.4124A12.0305,12.0305,0,0,1,50.6143,49.9136ZM21.0459,32.8457a2.4178,2.4178,0,0,0,.8022,1.4214l5.0289,4.31A1.7558,1.7558,0,0,0,28.019,39h3.962a1.7559,1.7559,0,0,0,1.1425-.4229l5.0279-4.3095a2.4263,2.4263,0,0,0,.7954-1.355c.0209-.3406.0532-.679.0532-1.0234V29.1268l-7.2582-1.6939a2.9585,2.9585,0,0,1-3.4832,0L21,29.1268V31.958C21,32.2567,21.03,32.55,21.0459,32.8457Zm-.92-8.8686a1,1,0,0,1,.874.9921v2.1043l6.0771-1.4179A2.9894,2.9894,0,0,1,27,25V24a1,1,0,0,1,2,0v1a1,1,0,0,0,2,0V24a1,1,0,0,1,2,0v1a2.982,2.982,0,0,1-.077.6553L39,27.0735V24.9692a1,1,0,0,1,.874-.9921,1.6956,1.6956,0,0,0,1.4668-1.4336l.23-1.6075A1.61,1.61,0,0,0,41,19.4291V20a1,1,0,0,1-2,0V13.2578A6.2647,6.2647,0,0,0,32.7422,7H27.2578A6.2647,6.2647,0,0,0,21,13.2578V20a1,1,0,0,1-2,0v-.5709a1.6105,1.6105,0,0,0-.5708,1.5074l.23,1.607A1.6956,1.6956,0,0,0,20.126,23.9771ZM52,31.5A3.5,3.5,0,1,1,48.5,28,3.5042,3.5042,0,0,1,52,31.5Zm-2,0A1.5,1.5,0,1,0,48.5,33,1.5017,1.5017,0,0,0,50,31.5ZM34,20a1,1,0,1,0,1,1A1,1,0,0,0,34,20Zm-8,0a1,1,0,1,0,1,1A1,1,0,0,0,26,20Zm-2,0a.995.995,0,0,0,.3164-.0518l3-1a1,1,0,1,0-.6328-1.8974l-3,1A1,1,0,0,0,24,20.0005Zm8.6836-1.0518,3,1a1,1,0,0,0,.6328-1.8974l-3-1a1,1,0,1,0-.6328,1.8974ZM25.8145,31.2012a35.5948,35.5948,0,0,0,4.1855.58,35.5948,35.5948,0,0,0,4.1855-.58,1,1,0,0,0-.371-1.9649A34.4725,34.4725,0,0,1,30,29.7812a34.4725,34.4725,0,0,1-3.8145-.5449,1,1,0,0,0-.371,1.9649Zm-1.0738,2.7646A32.33,32.33,0,0,0,30,35a32.33,32.33,0,0,0,5.2593-1.0342,1,1,0,1,0-.5186-1.9316A30.4474,30.4474,0,0,1,30,33a30.4474,30.4474,0,0,1-4.7407-.9658,1,1,0,0,0-.5186,1.9316ZM18,52a1,1,0,0,0-1,1v6a1,1,0,0,0,2,0V53A1,1,0,0,0,18,52Zm24,0a1,1,0,0,0-1,1v6a1,1,0,0,0,2,0V53A1,1,0,0,0,42,52Z"/>
</g>
</svg>